<svg xmlns="http://www.w3.org/2000/svg" width="19.833" height="35" viewBox="0 0 19.833 35"><defs><style>.a{fill:#fff;}</style></defs><path class="a" d="M19.833,30.917V20.757a4.093,4.093,0,0,0-3.009-3.94l-3.408-.929V13.309a1.746,1.746,0,0,0-.583-3.393h-.364L15.7,1.134,14.6.731,11.226,9.917H10.5V0H9.333V9.917H8.607L5.228.731l-1.095.4L7.364,9.917H7a1.746,1.746,0,0,0-.583,3.393v2.578l-3.408.929A4.093,4.093,0,0,0,0,20.757v10.16A4.088,4.088,0,0,0,4.083,35H15.75A4.088,4.088,0,0,0,19.833,30.917ZM16.517,17.943a2.923,2.923,0,0,1,2.15,2.814v4.91H14.4l-3.219-8.75h1.575ZM12.04,11.083h.793a.583.583,0,0,1,0,1.167H11.611Zm.21,2.333V15.75h-1.5l-.214-.583.642-1.75ZM10.5,11.083h.3l-.3.807Zm0,7.359,2.657,7.224H10.5ZM9.333,11.083v.807l-.3-.807Zm-.682,2.333.642,1.75-.214.583h-1.5V13.417Zm.682,5.026v7.224H6.676ZM7,11.083h.793l.429,1.167H7a.583.583,0,1,1,0-1.167ZM1.167,20.757a2.923,2.923,0,0,1,2.15-2.814l3.762-1.026H8.653l-3.221,8.75H1.167Zm0,10.16V26.833H5L4.133,29.2l1.095.4,1.019-2.769H9.333v3.5H10.5v-3.5h3.086L14.6,29.6l1.095-.4-.87-2.366h3.837v4.083a2.907,2.907,0,0,1-.058.583H1.225A2.907,2.907,0,0,1,1.167,30.917Zm.6,1.75h16.3a2.9,2.9,0,0,1-2.318,1.167H4.083A2.9,2.9,0,0,1,1.765,32.667Zm0,0"/><path class="a" d="M7,28.583H8.167V29.75H7Zm0,0"/><path class="a" d="M2.333,29.75H3.5v1.167H2.333Zm0,0"/><path class="a" d="M16.333,29.75H17.5v1.167H16.333Zm0,0"/><path class="a" d="M11.667,29.167h1.167v1.167H11.667Zm0,0"/><path class="a" d="M16.333,21.041v1.126H17.5V21.041a1.749,1.749,0,0,0-.779-1.458l-1.23-.82-.648.971,1.231.82A.583.583,0,0,1,16.333,21.041Zm0,0"/><path class="a" d="M16.333,23.333H17.5V24.5H16.333Zm0,0"/></svg>