<svg xmlns="http://www.w3.org/2000/svg" width="26.006" height="25.439" viewBox="0 0 26.006 25.439"><defs><style>.a{fill:#fff;}</style></defs><g transform="translate(-0.5 -60.655)"><path class="a" d="M23.611,163.919a10.3,10.3,0,0,0-3.978-4.565l3.883-3.883a.536.536,0,0,0,.156-.376v-2.268a.531.531,0,0,0-.531-.532H3.866a.531.531,0,0,0-.531.532V155.1a.536.536,0,0,0,.156.376l3.883,3.883a10.3,10.3,0,0,0-3.978,4.565A28.419,28.419,0,0,0,.5,177.2a.532.532,0,0,0,.532.532H25.975a.532.532,0,0,0,.532-.532A28.415,28.415,0,0,0,23.611,163.919ZM10.633,176.673v-1.2h5.74v1.2Zm3.925-4.894a2.843,2.843,0,0,0-.63-1.7.531.531,0,0,0-.85.638,1.71,1.71,0,0,1,.385,1.416,1.738,1.738,0,0,1-1.7-1.735c0-.61.922-1.805,1.736-2.652.814.846,1.736,2.04,1.736,2.652A1.734,1.734,0,0,1,14.558,171.779Zm6.276,4.894a32.543,32.543,0,0,0-.729-6.959.531.531,0,1,0-1.035.242,31.494,31.494,0,0,1,.7,6.717H17.436v-1.736a.532.532,0,0,0-.532-.532h-3.21a4.8,4.8,0,0,1,.309-.729c.088-.181.183-.377.269-.584a2.8,2.8,0,0,0,2.03-2.69c0-1.409-2.027-3.4-2.434-3.787a.532.532,0,0,0-.731,0c-.406.385-2.433,2.378-2.433,3.787a2.8,2.8,0,0,0,2.366,2.765l-.022.045a4.187,4.187,0,0,0-.438,1.193H10.1a.531.531,0,0,0-.532.532v1.736H7.235c.049-4.593.738-8.066,2.051-10.327a4.872,4.872,0,0,1,4.217-2.783c2.123,0,3.818,1.458,4.9,4.215a.531.531,0,0,0,.989-.389,8.618,8.618,0,0,0-2.589-3.747,5.269,5.269,0,0,0-3.3-1.142c-1.466,0-3.547.575-5.137,3.312-1.407,2.423-2.144,6.075-2.195,10.861H1.567a27.056,27.056,0,0,1,2.77-12.26c1.446-2.761,3.173-4.25,4.064-4.25a.536.536,0,0,0,.376-.907l-3.628-3.628H10.1a.531.531,0,0,0,0-1.063H4.4v-1.2H22.609v1.2H12.369a.531.531,0,1,0,0,1.063h9.488l-3.628,3.628a.536.536,0,0,0,.376.907c.891,0,2.618,1.49,4.064,4.25a27.06,27.06,0,0,1,2.77,12.26Zm0,0" transform="translate(0 -91.642)"/></g></svg>