<svg xmlns="http://www.w3.org/2000/svg" width="15.307" height="14.656" viewBox="0 0 15.307 14.656"><defs><style>.a{fill:none;stroke:#fff;stroke-linecap:round;stroke-linejoin:round;}</style></defs><g transform="translate(-1 -1)"><path class="a" d="M13.3,30.65a.65.65,0,1,1-.65-.65A.65.65,0,0,1,13.3,30.65Z" transform="translate(-5.948 -16.144)"/><path class="a" d="M29.8,30.65a.65.65,0,1,1-.65-.65A.65.65,0,0,1,29.8,30.65Z" transform="translate(-15.295 -16.144)"/><path class="a" d="M1.5,1.5H4.1l1.743,8.708a1.3,1.3,0,0,0,1.3,1.047h6.321a1.3,1.3,0,0,0,1.3-1.047l1.04-5.456H4.752"/></g></svg>