<svg xmlns="http://www.w3.org/2000/svg" width="24.983" height="19.987" viewBox="0 0 24.983 19.987"><defs><style>.a{fill:#fff;}</style></defs><path class="a" d="M12.492,51.2C6.283,51.2,0,52.345,0,54.531V67.856c0,2.186,6.283,3.331,12.492,3.331s12.492-1.145,12.492-3.331V54.531C24.983,52.345,18.7,51.2,12.492,51.2ZM24.151,67.856c0,1.045-4.435,2.5-11.659,2.5S.833,68.9.833,67.856V59.978c1.907,1.349,6.808,2.049,11.659,2.049s9.752-.7,11.659-2.049Zm0-9.161c0,1.045-4.435,2.5-11.659,2.5S.833,59.74.833,58.7V55.814c1.907,1.349,6.808,2.049,11.659,2.049s9.752-.7,11.659-2.049ZM12.492,57.029c-7.224,0-11.659-1.453-11.659-2.5s4.435-2.5,11.659-2.5,11.659,1.453,11.659,2.5S19.716,57.029,12.492,57.029Z" transform="translate(0 -51.2)"/><path class="a" d="M85.749,275.368a.416.416,0,0,0-.5.416v5.7a.416.416,0,0,0,.329.416,38.852,38.852,0,0,0,16,0,.416.416,0,0,0,.329-.416v-5.709a.416.416,0,0,0-.5-.416v.008a43.871,43.871,0,0,1-15.652,0Zm15.323.916v4.859a37.442,37.442,0,0,1-14.99,0v-4.859a45.58,45.58,0,0,0,14.99,0Z" transform="translate(-81.085 -264.413)"/></svg>