<svg xmlns="http://www.w3.org/2000/svg" width="406.052" height="535.561" viewBox="0 0 406.052 535.561"><defs><style>.a{fill:#f0f0f0;}</style></defs><g transform="translate(-900.578 -384.107)"><path class="a" d="M1023.186,772.14c1.776.154,2.488-1.05,3.141-2.4,2.957-6.113,5.74-12.325,8.952-18.3,8.571-15.952,17.332-31.8,26.01-47.7q5.92-10.844,11.8-21.708a4.934,4.934,0,0,0,.711-2.323c-.212-6.951-.341-13.67-3.947-20.259-4.382-8.007-10.623-14.034-17.041-20.12-4.309-4.084-8.474-8.318-12.7-12.492a3.391,3.391,0,0,1-.782-.953c-2.051-4.705-5.509-8.62-7.163-13.6-3.643-10.956-6.8-21.93-8.063-33.513a330.254,330.254,0,0,1-1.967-37.617,146.785,146.785,0,0,1,4.647-36.64c2.5-9.524,7.032-17.953,14.5-24.624a7.48,7.48,0,0,1,7.247-2.083,29.829,29.829,0,0,1,12.775,5.807c1.928,1.545,4.02,2.905,5.845,4.56a24.009,24.009,0,0,1,4.523,5c3.645,5.976,7.12,12.063,10.49,18.2a34.221,34.221,0,0,1,2.706,6.837c2.421,8.288,5.153,16.511,6.321,25.11,2.108,15.509,4.5,31,4.275,46.712a93.765,93.765,0,0,1-.93,11.05c-1.258,9.37-2.449,18.757-4.065,28.069-1.515,8.721-3.557,17.349-5.329,26.027-.315,1.541-.439,3.122-.786,5.674a16.887,16.887,0,0,0,2.5-2.293c4.165-6.623,8.425-13.19,12.374-19.942,11.669-19.955,20.272-41.386,29.717-62.405a93.1,93.1,0,0,0,4.324-12.86c2.685-9.494,5.213-19.033,7.726-28.575a42.987,42.987,0,0,0,.836-5.462c1.058-8.144,2.56-16.267,3.021-24.446.54-9.61,1.187-19.271-.191-28.911-.726-5.089-.825-10.268-1.6-15.346-1.4-9.2-3.645-18.174-8.511-26.263a67.52,67.52,0,0,0-4.107-6.143c-5.365-7.032-11-13.855-15.761-21.345-2.783-4.384-5.273-8.86-6.03-14.079a29.046,29.046,0,0,1-.024-3.885c3.038-1.108,6.291-1.3,8.933.206,5.522,3.154,11.42,5.687,16.364,9.867a54.677,54.677,0,0,1,17.5,27.077c.518,1.776.934,3.583,1.51,5.337.152.459.74.771,1.665,1.68.178-1.973.242-3.315.426-4.641,1.191-8.558,2.361-17.118,3.636-25.663a53.992,53.992,0,0,0-.178-15.4c-.128-.953-.208-1.913-.351-3.263,1.011.3,1.8.281,2.006.619,6.212,10.118,10.911,20.769,11.084,32.914.079,5.549.013,11.1.013,16.657,2,.133,2.063-1.395,2.5-2.359,3.066-6.745,5.882-13.619,9.976-19.837,1.922-2.92,3.971-5.77,6.154-8.5.649-.812,1.946-1.106,3.154-1.748a12.591,12.591,0,0,1,.4,7.049,82.2,82.2,0,0,1-2.224,8.344c-2.29,6.167-4.81,12.245-7.287,18.341-.214.527-.791.909-1.172,1.382.127.193.221.371.332.534.092.137.206.257.311.386q-.334-.5-.669-.992c.761.028,1.817.388,2.224.024a21.269,21.269,0,0,0,3.214-3.724A82.748,82.748,0,0,1,1206.4,414.88c2.912-2.209,6.39-3.69,9.667-5.391a2.541,2.541,0,0,1,3.315.726,2.643,2.643,0,0,1,.39,3.377c-1.045,1.761-2.145,3.492-3.173,5.264-6.921,11.928-13.1,24.283-20.93,35.684-4.776,6.957-9.7,13.844-14.017,21.084-10.017,16.784-20.7,33.216-28.436,51.27a44.385,44.385,0,0,1-2.425,4.191c-.7-2.933.609-4.688,1.393-6.477,5.8-13.229,13.355-25.53,20.289-38.165,7.645-13.938,16.766-26.912,25.4-40.211a263.872,263.872,0,0,0,15.785-27.951c.686-1.4,1.843-2.863.478-4.675-2.755.362-4.8,2.158-6.959,3.658a68.551,68.551,0,0,0-15.025,14.6c-7.045,9.115-13.887,18.4-19.481,28.545-3.91,7.094-7.274,14.311-8.219,22.462a4.122,4.122,0,0,1-.808,1.556c-.081.129-.379.122-.578.176-.474-5.714,1.44-14.634,4.519-20.066a295.825,295.825,0,0,0,18.187-38.512c1.864-4.785,3.244-9.758,4.77-14.669a12.551,12.551,0,0,0,.032-3.01c-1.163.688-2.151.964-2.651,1.613a89.406,89.406,0,0,0-10.765,18.684c-1.573,3.568-2.616,7.364-4.153,10.949a55.921,55.921,0,0,0-4.667,16.505c-.073.737-.684,1.423-1.558,3.141-.167-1.939-.456-2.852-.283-3.664a129.462,129.462,0,0,0,3.045-26.342c.058-8.879-.2-17.724-3.31-26.2a23.244,23.244,0,0,0-3.251-6.642c-1.633,2.539-2.441,5.972-3.006,11.729-.381,3.893-.928,7.769-1.352,11.658-.446,4.084-.924,8.168-1.217,12.262-.279,3.887.12,7.879-.619,11.658-.8,4.084,1.81,8.059-.024,12.316-.613-.508-1.324-.8-1.416-1.232-.259-1.193-.193-2.453-.379-3.668-.628-4.06-1.069-8.17-2.033-12.153-1.112-4.594-2.7-9.074-4.086-13.6a35.983,35.983,0,0,0-5.462-11.011,33.505,33.505,0,0,1-2.1-3.047c-3.844-6.619-9.488-11.266-16.1-14.879-1.986-1.084-3.9-2.3-5.894-3.377a14.473,14.473,0,0,0-3.37-1.44,2.8,2.8,0,0,0-3.55,3.553,19.671,19.671,0,0,0,2.128,5.727A223.748,223.748,0,0,0,1133.1,427a45.121,45.121,0,0,1,8.056,15.217A116.252,116.252,0,0,1,1146.638,470c.626,9.066.508,18.112.926,27.154a140.258,140.258,0,0,1-.722,19.655,115.929,115.929,0,0,0-.163,12.976,8.406,8.406,0,0,0,1,4.088,5.564,5.564,0,0,1,.289,5.273c-1.817,5.027-3.619,10.062-5.282,15.142-1.215,3.713-2.162,7.512-3.3,11.251-1.38,4.527-2.721,9.072-4.29,13.535-3.2,9.124-6.293,18.3-9.884,27.266a294.282,294.282,0,0,1-18.834,38.849c-1.755,3.015-3.906,5.794-5.843,8.7-1.127,1.693-2.192,3.428-3.27,5.121,1.283,1.013,2.179.21,3.081-.107,13.186-4.641,24.742-12.153,35.553-20.786a242.2,242.2,0,0,0,20.85-18.35,281.169,281.169,0,0,0,18.68-21.41c5.172-6.389,9.848-13.18,14.714-19.813,3.654-4.977,7.264-9.987,10.889-14.984a10.835,10.835,0,0,0,.7-1.022q6.168-11.034,12.314-22.08c.5-.9.938-1.836,1.361-2.775,1.1-2.438,1.135-4.77-.694-6.934-4.4-5.19-7.373-11.339-11.622-16.7-6.068-7.658-9.957-16.511-9.6-26.734.083-2.426-.656-4.87-.818-7.319a2.481,2.481,0,0,1,1.033-1.971,2.452,2.452,0,0,1,2.171.328c5.631,4.519,11.159,9.154,14.152,16.019a2.614,2.614,0,0,0,.862.866c.124.1.368.039,1,.077.079-1.331.266-2.668.221-4a53.209,53.209,0,0,1,7.943-30.64c1.849-2.97,3.681-5.954,5.468-8.963a53.188,53.188,0,0,1,10.656-12.727c2.314-2.046,4.5-4.238,6.73-6.379,1.38-1.326,2.9-1.356,4.731-.461.97,6.867-1.176,14.219,2.11,20.93,2.063-.1,2.316-1.751,2.94-2.951,2.471-4.75,4.864-9.541,7.306-14.307a19.783,19.783,0,0,1,1.562-2.661,3.486,3.486,0,0,1,6.094.321,11.728,11.728,0,0,1,1.2,4.705c.2,4.746-.041,9.466-1.869,13.977-1.311,3.238-2.582,6.5-3.7,9.807-.5,1.5-1.534,2.942-1.091,4.669.259.034.489.137.583.064,5.732-4.41,12.411-7.2,18.575-10.872a6.288,6.288,0,0,1,2.284-.746,2.156,2.156,0,0,1,2.595,2.567,26.706,26.706,0,0,1-1.213,4.129c-1.442,3.838-2.959,7.645-4.63,11.939a25.453,25.453,0,0,0,3.171-.268c2.406-.533,4.78-1.221,7.187-1.753a29.313,29.313,0,0,1,15.151,1.061c1.494,2.237.48,3.994-.911,5.631-4.8,5.644-9.4,11.489-14.523,16.835-6.115,6.387-12.6,12.43-19.083,18.451-5.309,4.932-11.5,8.686-17.8,12.183a135.632,135.632,0,0,1-17.229,8.279c-4.963,1.9-9.584,4.718-14.266,7.292a7.636,7.636,0,0,0-2.378,2.738c-7.411,11.868-14.649,23.85-22.213,35.62-4.778,7.437-9.113,15.183-14.785,22.031a19.556,19.556,0,0,0-1.9,3.55c1.3,1.108,2.207.446,3.09,0,6.413-3.274,12.787-6.6,19.807-8.506a87.613,87.613,0,0,1,22.509-3.27c8.582-.064,15.691,3.383,21.969,8.459a20.856,20.856,0,0,1,6.587,10.184,65.7,65.7,0,0,1,1.506,31.15,11.906,11.906,0,0,0-.433,3.028c.146,1.7.392,3.55-1.253,4.459-1.924,1.063-4.011,2.447-6.344,1.821-5.91-1.581-11.877-.7-17.829-.754a115.476,115.476,0,0,1-13.572-.534c-6.526-.831-10.505-5.273-13.192-10.889-1.414-2.953-2.172-6.218-3.552-9.192-1.811-3.906-3.985-7.643-5.925-11.493-2.211-4.395-6.267-5.815-10.64-6.37-2.175-.276-4.472.317-6.7.589-2.156.261-3.675,1.5-5.153,3.079-6.9,7.364-13.533,15.046-20.99,21.81-11.3,10.244-23.079,20.1-37.454,25.836-6.893,2.749-13.647,5.736-20.315,8.942a24.073,24.073,0,0,0-5.627,3.679A48.117,48.117,0,0,0,1077,689.62c-4.6,8.277-9.666,16.308-13.957,24.735-3.81,7.482-8.219,14.709-10.983,22.693,1.215,1.056,1.408-.137,1.834-.664a215.035,215.035,0,0,1,27.73-28.95c7.392-6.293,14.887-12.355,23.406-17.077a90.5,90.5,0,0,1,21.2-8.318c5.361-1.4,10.643-3.171,15.852-5.076a80.9,80.9,0,0,1,31.407-5.194c1.234.053,2.475.116,3.709.086,9.676-.227,18.17,3.154,25.828,8.742,3.818,2.785,7.373,5.946,10.936,9.063a27.622,27.622,0,0,1,4.639,4.922c5.736,8.3,11.356,16.728,15.024,26.181a58.8,58.8,0,0,1,3.57,13.7,35.012,35.012,0,0,1-.814,11.022c-1.6,8.056-3.773,16-5.348,24.058a72.4,72.4,0,0,0-1.069,19.029c.169,2.376-1.026,3.371-3.407,3.874-6.015-3.658-12.961-5.32-19.942-7.116-15.2-3.912-29.864-9.237-42.545-18.917-8.4-6.415-14.478-14.461-17.4-24.729a146,146,0,0,1-4.943-22.873c-.12-1.009-.564-1.975-.756-2.98-1.026-5.346-3.936-8.937-9.4-10.186-7.613-4.382-15.539-2.94-23.436-1.159-7.864,1.774-15.187,5.082-22.528,8.3a11.648,11.648,0,0,0-2.648,1.573c-5.412,4.41-11.457,8.112-15.547,14.013a15.065,15.065,0,0,1-3.437,3.54c-6.1,4.446-9.974,10.925-15.123,16.226-5.567,5.727-8.864,12.76-12.117,19.856-4.89,10.67-10.2,21.17-14.581,32.046-6.224,15.461-12.684,30.846-17.176,46.974-4.588,16.471-9.121,32.944-11.238,49.941-.881,7.082-1.892,14.2-1.292,21.6-4.161,2.065-8.029.975-11.75-.956a4.166,4.166,0,0,1-2.318-4.658c.658-3.649,1.193-7.341,2.168-10.91q8.527-31.259,17.246-62.467a17.358,17.358,0,0,0,.454-7.2c-.542-4.045-.319-8.176-1.249-12.243-1.971-8.611-3.743-17.278-6.942-25.54a73.287,73.287,0,0,0-7.814-15.369c-5.511-7.975-11.36-15.567-19.059-21.731-5.434-4.352-10.1-9.67-15.05-14.615-1.208-1.208-2.378-2.383-4.214-2.134-6.3.853-11.643-2.1-17.043-4.478a105.973,105.973,0,0,1-11.32-6.323c-4.718-2.814-8.4-6.554-10.349-11.851a33.212,33.212,0,0,0-2.368-4.262c-.778-1.418-1.513-2.858-2.254-4.262A49.328,49.328,0,0,1,912.2,697.3a18.834,18.834,0,0,1,7.81-3.52c2.428-.418,4.8-1.172,7.232-1.551a47.9,47.9,0,0,1,7.334-.651c2.67,0,5.342.332,8.009.566a10.68,10.68,0,0,1,3.043.5c5.517,2.226,11.052,4.431,16.479,6.872,5.234,2.352,10.233,5.256,15.539,7.427a45.943,45.943,0,0,0,29.672,2.143,40.137,40.137,0,0,1,7.934-1.191,25.981,25.981,0,0,1,6.092.634c2.511.476,3.848,2.1,4.163,4.692.6,4.9,1.056,9.833,2.042,14.656,1.339,6.559,1.033,13.13.668,19.693a87.65,87.65,0,0,1-3.291,20.7c-.411,1.356-1.123,2.622-1.667,3.958a9.836,9.836,0,0,0,.028,1.11c.024.137.3.231.454.345a1.836,1.836,0,0,0-.056-.538C1023.542,772.8,1023.353,772.472,1023.186,772.14Zm43-70.483c-1.526.677-.315,2.123-.864,3.075-2.305,1.014-2.305,1.014-2.955,3.717,1.086-1.358,2.035-2.543,2.985-3.732.236-1.065.471-2.132.7-3.214q.43-1.851.857-3.7c1.6.84,2.2-.424,2.818-1.429,3.118-5.089,6.01-10.328,9.318-15.286,5.71-8.556,10.812-17.529,17.315-25.549.514-.634.87-1.4,1.339-2.072,10.156-14.622,17.319-30.8,24.437-47,1.487-3.385,2.927-6.8,4.176-10.281,2.156-5.993,4.159-12.04,6.175-18.08a6.483,6.483,0,0,0,.026-1.945,161.9,161.9,0,0,0-8.547,17.2c-10,22.612-20.67,44.844-34.413,65.51-8.322,12.513-15.479,25.746-22.667,38.947Q1066.531,699.734,1066.183,701.657ZM1189.7,584.867c-1.547,1.628-3.2,3.165-4.624,4.9-6.66,8.119-13.141,16.383-19.918,24.4a112.57,112.57,0,0,1-11.146,11.545c-8.774,7.78-17.351,15.849-27.225,22.271-5.852,3.808-11.714,7.645-18.264,10.259-3.818,1.524-7.579,3.2-11.294,4.963-2.612,1.238-5.106,2.749-6.593,5.391a15,15,0,0,0-.821,2.578,20.188,20.188,0,0,0,6.859-2.033c5.3-2.241,10.6-4.482,15.886-6.762,1.883-.814,3.748-1.682,5.571-2.625,8.279-4.277,15.579-10,22.8-15.8,4.326-3.482,8.448-7.227,12.535-10.992,2.263-2.087,4.255-4.468,6.385-6.7,5.389-5.654,10.925-11.172,15.125-17.846,1.864-2.961,4.056-5.715,5.961-8.652,3.122-4.817,6.756-9.325,8.995-14.684a5.372,5.372,0,0,0,1.168-.973c.114-.161-.216-.634-.345-.966-.3.208-.707.356-.881.643A2.935,2.935,0,0,0,1189.7,584.867ZM1058.767,715.006c-1.333-.092-1.648,1.011-2.117,1.864-2.972,5.41-5.948,10.816-8.86,16.259-4.268,7.977-8.753,15.852-12.661,24-7.645,15.95-14.922,32.074-21.513,48.5-1.225,3.053-2.248,6.2-3.685,9.151-7.257,14.875-11.808,30.707-16.494,46.479-3.281,11.035-6.18,22.185-9.184,33.3a165.972,165.972,0,0,0-3.885,17.606c2.19,3.512,4.654,5.642,8.92,5.031a28.48,28.48,0,0,0,.639-3.118c.366-4.1.533-8.219,1.018-12.3a333.936,333.936,0,0,1,13.805-62.568c7.416-23.143,17.011-45.425,27.315-67.406q4.972-10.613,10.066-21.167c3.75-7.776,7.669-15.47,11.3-23.3,1.888-4.069,4.617-7.814,5.2-12.436.3-.186.673-.319.846-.585.073-.109-.285-.5-.448-.769-.12.139-.332.272-.341.418A6.372,6.372,0,0,0,1058.767,715.006Zm240.457-239.338c.385.051.771.12,1.159.146a.9.9,0,0,0,.549-.107c.094-.069.068-.3.1-.461-.317-.049-.677-.212-.943-.116a3.9,3.9,0,0,0-.938.7,3.267,3.267,0,0,0-3.9-2.26c-5.089.654-10.223,1.123-14.733,4.05-2.179,1.412-4.87,1.736-6.706,4.039-9.151,11.48-20.475,20.778-31.247,30.623-.585.536-1.217,1.2-2.434.167,1.472-1.416,2.88-2.85,4.369-4.193,9.927-8.973,19.623-18.172,28.262-28.431a46.882,46.882,0,0,0,8.164-14.416c.645-1.776,1.108-3.529-.007-5.4-.568-.036-1.247-.287-1.738-.081a54.962,54.962,0,0,0-12.882,7.193c-3.968,3.1-6.807,7.09-9.353,11.356-.521.876-1.375,1.583-2.539.257.34-1.076.617-2.256,1.076-3.362,2.132-5.132,4.253-10.265,6.488-15.35,2.595-5.9,4.365-11.958,4.168-18.478a9.169,9.169,0,0,0-.054-2.443c-.3-.913-.8-2.156-1.515-2.417-.686-.249-1.862.435-2.636.977a5.053,5.053,0,0,0-1.47,1.956c-2.211,4.63-4.579,9.2-6.473,13.962a18.183,18.183,0,0,0-1.119,11.457,16.219,16.219,0,0,1,.049,3.068c.249,4.6-1.5,8.89-2.066,13.319-1,7.789-3.951,14.669-7.919,21.208-5.125,8.442-10.439,16.766-15.7,25.125-1.932,3.07-2.2,4.2-1.729,9.031,1.718-.908,3.319-1.761,4.922-2.606,1.637-.863,3.188-2.051,4.93-2.515,4.643-1.241,8.646-3.8,12.937-5.764,7.746-3.542,14.566-8.442,21.15-13.767,9-7.279,16.754-15.815,24.692-24.163a54.316,54.316,0,0,0,4.808-6.392,13.4,13.4,0,0,0,.913-2.987c-2.22,1.2-3.672,1.838-4.967,2.713-3.748,2.533-7.429,5.168-11.146,7.746-.568.4-1.149,1.234-2.051-.041,3.21-2.554,6.263-5.32,9.655-7.574C1294.051,479.642,1296.042,476.9,1299.224,475.668ZM989.542,740.947c1.193,2.363,2.751,4.615,3.5,7.112a126.876,126.876,0,0,1,4.435,17.3,454.936,454.936,0,0,1,5.256,53.425c.03.906-.287,2.136,1.3,2.28,4.527-7.679,6.953-16.22,10-24.5a4.437,4.437,0,0,0,.371-1.8c-.24-2.993,1.052-5.618,1.866-8.367,2.449-8.271,6.169-16.171,7.3-24.821.373-2.852.279-5.785.844-8.59,1.956-9.683.536-19.273-.645-28.851-.306-2.481-.716-5.393-3.488-6.565a3.611,3.611,0,0,0-.868.156,14.49,14.49,0,0,0-2.076,1.3,27.081,27.081,0,0,1-16.477,6.1c-4.725.253-9.441.651-14.161.99a15.426,15.426,0,0,0-3.068.281c-9.271,2.61-18.716,4.752-26.991,10.06-1.373.881-2.981,1.386-4.431,2.151a28.13,28.13,0,0,0-2.554,1.742,50.232,50.232,0,0,0,7.448,7.915c1.528,1.375,3.006,2.8,4.493,4.223,2.374,2.269,4.767,4.519,7.1,6.833,2.475,2.458,5.048,4.845,7.283,7.512,2.77,3.3,5.359,6.775,7.8,10.332a90.115,90.115,0,0,1,4.962,8.494c4.6,8.6,7.03,17.938,9.078,27.4.422,1.948,1.054,3.852,1.909,6.921a17.933,17.933,0,0,0,.75-8.221c-1.2-14.352-2.237-28.725-3.906-43.023a78.5,78.5,0,0,0-5.252-21.467c-.827-1.971-2.166-4.05-1.577-6.464Zm93.174-31.227.7,1.052a122.289,122.289,0,0,1,22.346-8.494c8.958-2.363,17.73-3.143,26.674-.09,9.522,3.252,9.833,3.16,12.13,13.33a6.714,6.714,0,0,1,.343,1.811c-.367,5.661,1.457,10.979,2.522,16.411a58.658,58.658,0,0,0,5.442,15.7,46.914,46.914,0,0,0,4.551,6.529c4.712,6.212,11.219,10.323,17.741,14.176,9.786,5.779,20.672,8.991,31.626,11.753,4.375,1.1,8.845,1.8,13.079,3.471a17.648,17.648,0,0,0,4.155,1.009,2.356,2.356,0,0,0,2.567-2.13c.143-1.016.079-2.061.22-3.077.913-6.518,1.258-13.195,2.968-19.5,1.564-5.775,2.8-11.583,3.981-17.422a29.762,29.762,0,0,0-.281-14,84.98,84.98,0,0,0-6.186-16.721c-1.888-3.694-4.588-6.839-6.334-10.553-2.243-4.77-5.71-8.611-9.458-12.089a144.7,144.7,0,0,0-13.032-10.366,31.051,31.051,0,0,0-14.789-5.777,84.169,84.169,0,0,0-28.24.857,122.954,122.954,0,0,0-18.337,5.312,91.236,91.236,0,0,1-11.144,3.647c-13.306,3.231-24.6,10.276-35.354,18.358C1087.841,705.006,1085.34,707.445,1082.716,709.72Zm-22.708-166.248c-.949,3.505-1.727,6.454-2.548,9.389-1.215,4.341-1.678,8.894-3.713,13-1.83,3.688-3.576,7.416-5.468,11.069-2.554,4.932-5.226,9.8-7.823,14.716-4.163,7.874-4.6,16.087-2.2,24.557a24.088,24.088,0,0,0,8.014,12.175c1.406,1.17,2.725,2.449,4.024,3.739,4.375,4.345,8.776,8.667,13.055,13.1a35.216,35.216,0,0,1,5.057,6.195c2.516,4.227,5.307,8.348,6.646,13.195.184.671.816,1.219,1.736,2.528a23.321,23.321,0,0,0,.949-7.289c-.086-12.965-.163-25.918-1.144-38.877-1.084-14.324-4.808-27.919-9.541-41.339-1.069-3.03-2.473-5.961-2.818-9.259a6.7,6.7,0,0,1,1.956,2.728c2.428,6.767,5.005,13.49,7.122,20.355,4.461,14.452,6.2,29.322,6.344,44.424.06,6.167.551,12.329.9,18.491.026.469.459.915.748,1.457.371-.476.72-.737.812-1.069a264.354,264.354,0,0,0,6.126-30.171c1.211-7.716,2.246-15.466,3.724-23.13a67.966,67.966,0,0,0,1.391-12.843c.011-11.963-1.4-23.809-2.845-35.654-.448-3.668-.921-7.336-1.528-10.981a164.951,164.951,0,0,0-6.464-25.046,47.261,47.261,0,0,0-3.229-7.966c-2.591-4.675-5.706-9.064-8.243-13.765-3.823-7.082-10.219-11.118-16.882-14.84a12.082,12.082,0,0,0-5.312-1.241,6.09,6.09,0,0,0-6.436,4.69,31.272,31.272,0,0,0-1.112,6.057,79.159,79.159,0,0,0,3.69,31.622,36.259,36.259,0,0,0,12.905,18.348C1058.544,542.32,1059.17,542.823,1060.008,543.472ZM904.341,711.192c1.436,2.88,2.65,5.487,4.017,8.013a18.9,18.9,0,0,0,7.686,7.819c3.979,2.16,7.973,4.288,11.967,6.42a28.778,28.778,0,0,0,24.964,1.393,61.818,61.818,0,0,0,6.042-3.051c8.641-4.5,17.686-7.666,27.473-8.446,3.891-.311,7.78-1.011,11.665-.966,6.668.079,12.34-2.4,17.756-5.888,2.19-1.412,2.239-1.468,1.131-5.035-2.813-.859-5.682-.4-8.523-.009-3.458.476-6.878,1.245-10.345,1.626a31.544,31.544,0,0,1-7.979.182c-10.529-1.553-19.906-6.235-29.237-11.065-4.9-2.539-10.017-4.665-15.052-6.938a5.29,5.29,0,0,0-1.815-.343c-7.165-.45-14.223-1.116-21.45.7C913.9,697.8,908.032,702.677,904.341,711.192Zm316.648-179.481c2.766-1.832,4.165-4.369,5.689-6.694,3.953-6.027,7.6-12.26,11.615-18.241a73.421,73.421,0,0,0,11.716-30.27c.825-5.382.846-10.54-.924-15.819-2.22-6.627-4.193-13.372-3.844-20.542.062-1.283-.645-2.605-1.121-4.365a51.784,51.784,0,0,0-14.035,13.563,132.254,132.254,0,0,0-8.8,14.167c-2.115,3.973-4.217,8.183-5.1,12.535a71.38,71.38,0,0,0,1.584,36.038,36.377,36.377,0,0,1,1.8,10.9A21.174,21.174,0,0,0,1220.989,531.711Zm-188.023,70.714a55.21,55.21,0,0,1,2.26-5.959c4.02-7.868,7.952-15.794,12.318-23.471,4.155-7.307,6.036-15.243,7.523-23.338a9.107,9.107,0,0,0-2.64-8.423,46.17,46.17,0,0,1-11.6-21.455c-.617-2.591-.921-5.256-1.433-7.872a59.649,59.649,0,0,1-.894-19.592,30.909,30.909,0,0,0,.021-3.814c-2.82.846-3.711,2.98-4.729,4.883-3.139,5.862-4.74,12.278-6.267,18.673-2.3,9.64-2.46,19.554-3.3,29.374a29.7,29.7,0,0,0,.049,7.4c1.007,5.933.534,11.909.911,17.853.092,1.438.12,2.886.315,4.311.756,5.5,1.294,11.043,2.445,16.458,1.056,4.982,2.79,9.82,4.251,14.714C1032.23,602.278,1032.556,602.3,1032.965,602.426Zm215.662,47.329c2.213-1.811,1.975-3.861,1.335-5.873-.559-1.753-1.421-3.407-2.074-5.134-2.685-7.092-7.3-12.985-12.616-18.095-4.2-4.041-8.757-8.157-14.986-9.19-6.968-3.775-14.654-3.7-22.226-3.923-3.465-.1-6.955.591-10.43.936-.8.081-1.659.137-1.7,1.545,1.714.81,3.555,1.628,5.342,2.55,1.089.561,2.475,1.041,3.072,1.978,3.186,4.992,7.354,9.383,8.83,15.442,1.318,5.417,3.448,10.531,7.444,14.714a10.824,10.824,0,0,0,6.9,3.649c5.108.548,10.159,1.487,15.374.96a76.414,76.414,0,0,1,9.875.124C1244.8,649.5,1246.84,649.654,1248.627,649.755Zm-57.021-45.2c.054.435.107.868.161,1.3,1.607-.135,3.231-.159,4.814-.428a26.827,26.827,0,0,1,10.4.071,40.223,40.223,0,0,0,4.875.731c6.484.6,11.956,4.056,17.87,6.265a4.194,4.194,0,0,1,.988.726c2.1,1.641,4.217,3.255,6.274,4.947a11.614,11.614,0,0,1,2.605,2.6c3.771,6.068,9.027,11.236,11.1,18.348.231.789,1.187,1.365,2.231,2.5a46.516,46.516,0,0,0,1.8-12.029,51.964,51.964,0,0,0-3.178-16.886,19.767,19.767,0,0,0-5.226-8.181c-5.984-5.256-13.128-8.571-21.236-8.524a75.034,75.034,0,0,0-26.935,5.46C1195.9,602.327,1193.783,603.51,1191.606,604.551Zm25.388-79.782c-.388-3.047-.075-5.58-.844-8.146-1-3.328-1.783-6.721-2.713-10.071a16.624,16.624,0,0,0-1.238-3.443c-2.231-4.138-4.483-8.269-6.876-12.316a18.824,18.824,0,0,0-6.327-6.584c-.891-.549-1.843-.915-2.693.069,0,.422-.148.9.021,1.193,2.016,3.54,4.333,6.932,6.079,10.6,3.786,7.936,7.246,16.029,10.94,24.011C1214.059,521.624,1214.258,523.666,1216.994,524.769Zm-20.981-34.047c1.538,10.229,5.119,18.106,11.954,25.059.165-1.2.493-1.886.285-2.323q-4.721-9.931-9.6-19.792C1198.255,492.865,1197.43,492.275,1196.014,490.722Zm-49.875,46.318c-1.6-1.048-2.655-.986-3.107.636q-1.9,6.8-3.662,13.647a5.809,5.809,0,0,0,.15,1.806c.45-.317.936-.469,1.044-.763C1142.4,547.411,1144.187,542.437,1146.139,537.04Zm-9.539,28.772c-1.442.658-2.775,1.579-1.648,3.666C1135.595,568.049,1136.1,566.93,1136.6,565.812Zm.874-5.367-.341-.21-.231.469.572.276Zm1.208-4.142-.2-.409c-.024.259-.049.518-.075.778Z" transform="translate(0 0)"/><path class="a" d="M1017.07,476.515a45.743,45.743,0,0,1,.506-6.689,185.4,185.4,0,0,0,3.79-31.784c.2-4.5.015-9.016.1-13.522a25.6,25.6,0,0,1,.8-3.977C1025.082,429.822,1022.062,465.112,1017.07,476.515Z" transform="translate(133.112 41.633)"/><path class="a" d="M1004.649,529.031c.487-.559.8-1.266,1.269-1.406,5.339-1.554,10.679-3.244,16.34-2.953,3.7.191,7.4.516,11.084.911a26.946,26.946,0,0,1,13.666,5.254c1.967,1.483,4.167,2.653,6.233,4.009,14,9.192,23.822,21.93,31.176,36.77a191.442,191.442,0,0,1,9.964,24.6c.375,1.129.594,2.312.889,3.486a5.878,5.878,0,0,1-1.288.255,43.132,43.132,0,0,1-1.949-4.467,153.168,153.168,0,0,0-16.377-34.5c-6.685-10.27-14.81-19.25-25.652-25.4a3.638,3.638,0,0,1-.533-.309c-6.97-5.783-15.142-7.941-24.032-8.457a43.364,43.364,0,0,0-15.843,1.843A7.887,7.887,0,0,1,1004.649,529.031Z" transform="translate(118.919 160.582)"/><path class="a" d="M1030.213,587.569c-.6-.386-1.508-.632-1.765-1.183a38.486,38.486,0,0,1-2.738-6.809,60.311,60.311,0,0,1-1.206-22,136.576,136.576,0,0,1,3.64-19.959,27.918,27.918,0,0,1,1.742-4.562,1.585,1.585,0,0,1,1.5-.467,1.831,1.831,0,0,1,.578,1.523,10.191,10.191,0,0,1-.741,2.34c-3.223,8.751-4.459,17.863-4.982,27.116A52.977,52.977,0,0,0,1030.213,587.569Z" transform="translate(141.049 169.602)"/><path class="a" d="M1040.825,582.113c-4.691-4.227-7.354-17-6.9-25.292.289-5.271.152-5.279,2.038-7.272.214,5.869.049,11.6.737,17.221C1037.337,572.006,1039.771,576.915,1040.825,582.113Z" transform="translate(152.313 189.046)"/><path class="a" d="M1060.079,541.489c-1.179-1.061-2.344-2.138-3.542-3.178-1.7-1.483-3.388-2.985-5.151-4.393a18.3,18.3,0,0,0-13.739-4.21c-2.119.21-4.354,1.125-6.606-.06C1037.616,524.091,1052.179,529.632,1060.079,541.489Z" transform="translate(149.077 163.827)"/><path class="a" d="M1064.8,547.636c-4.206-1.821-7.557-3.613-11.12-4.716-3.587-1.11-7.39-1.534-11.823-2.4,4.907-1.6,9.049-.731,13.025.662C1058.372,542.408,1062.179,543.4,1064.8,547.636Z" transform="translate(161.432 177.745)"/><path class="a" d="M1038.269,541.768c.454,3.083-.484,5.211-1.463,7.386-2.308-.671-1.609-2.34-1.6-3.585C1035.226,543.913,1035.768,542.419,1038.269,541.768Z" transform="translate(153.714 180.154)"/><path class="a" d="M975.868,453.929c1.725.208,2.066,1.656,2.608,2.92q1.16,2.7,2.307,5.408l.021-.041c-.677-.334-1.729-.5-1.965-1.033-1.073-2.41-1.918-4.924-2.843-7.4Z" transform="translate(86.032 79.617)"/><path class="a" d="M977.175,457.2q-1.1-3.2-2.19-6.4l-.148.152c2.119,1.637,3.06,3.69,2.224,6.379Z" transform="translate(84.854 76.202)"/><path class="a" d="M978.67,462.159c1.44.03,1.757,1.341,2.464,2.2a1.1,1.1,0,0,0,.1-.081c-1.551.126-1.633-1.5-2.52-2.175C978.732,462.069,978.67,462.159,978.67,462.159Z" transform="translate(89.233 89.117)"/><path class="a" d="M978.188,460.295c2.278.814,1.328,2.5,1.054,4.026-.021.032.041-.058.019-.019-.354-1.341-.686-2.721-1-4.122C978.28,460.158,978.188,460.295,978.188,460.295Z" transform="translate(88.683 86.923)"/><path class="a" d="M978.4,457.752c.028,1.77.056,3.538.069,5.324-.013.019.079-.118.062-.1a6.906,6.906,0,0,1-.122-5.247C978.424,457.711,978.4,457.752,978.4,457.752Z" transform="translate(88.413 84.122)"/><path class="a" d="M974.443,489.016c.191.469.383.939.18.439.026.512,0-.03-.03-.57Z" transform="translate(84.403 119.727)"/><path class="a" d="M973.226,485.566c.283.2.707.347.81.615s-.092.684-.156,1.033c-.2-.216-.519-.4-.576-.654a3.916,3.916,0,0,1,.051-1.123Z" transform="translate(83.013 115.787)"/><path class="a" d="M979.856,465.565a4.066,4.066,0,0,0,.54.746c.088.084.351-.026.536-.047l-.006.42-1.058-1.131Z" transform="translate(90.589 93.065)"/><path class="a" d="M980.212,468.324c-.159-1.725-1.391-3.439-.015-5.2.024-.021-.1.088-.073.06.045,1.7.062,3.42.079,5.145Z" transform="translate(90.243 90.292)"/><path class="a" d="M975.67,452.081l-1.288-2.411-.146.167c1.455.238,1.363,1.316,1.29,2.389Z" transform="translate(84.168 74.917)"/><path class="a" d="M975.244,450.828q-.823-1.083-1.646-2.171l-.116.109c1.176.268,1.971.818,1.622,2.218C975.1,450.995,975.244,450.828,975.244,450.828Z" transform="translate(83.306 73.759)"/><path class="a" d="M973.588,449.421c.019-.478.036-.956.056-1.433.1.137.321.3.3.407a7.447,7.447,0,0,1-.443,1.114C973.472,449.531,973.588,449.421,973.588,449.421Z" transform="translate(83.317 72.995)"/><path class="a" d="M974.937,489.148l-.795-.493a3.816,3.816,0,0,1,.308.249c.116.114.216.242.33.371Z" transform="translate(84.059 119.464)"/><path class="a" d="M973.529,485.636l-.456-.373c.107.165.214.33.326.5Z" transform="translate(82.838 115.588)"/><path class="a" d="M937.934,549.558c.488.315,1.174.514,1.435.962,2.573,4.382,5.526,15.464,5.7,21.827-2.329-4.135-2.269-8.213-3.5-11.887-1.221-3.653-2.344-7.341-3.51-11.015Z" transform="translate(42.686 188.927)"/><path class="a" d="M950.953,565.3c-1.191-6.308-3.079-12.532-3.062-19.038A47.781,47.781,0,0,1,950.953,565.3Z" transform="translate(54.063 185.293)"/><path class="a" d="M950.92,547.437c3.259,4.09,3.071,9.063,3.78,13.816.156,1.039.654,2.456-1.277,3.411-.3-3.09-.471-6.031-.891-8.939C952.126,552.944,951.466,550.2,950.92,547.437Z" transform="translate(57.524 186.632)"/><path class="a" d="M934.043,551.884a34.977,34.977,0,0,1,7.141,12.3C938.08,561.83,936.623,559.308,934.043,551.884Z" transform="translate(38.24 191.714)"/><path class="a" d="M955.32,547.437c.525,3.062,1.054,6.126,1.763,10.255C954.778,554.071,954.778,554.071,955.32,547.437Z" transform="translate(62.214 186.632)"/><path class="a" d="M931.012,553.6c4.189,3.649,4.823,4.579,6.139,9.771-2.586-3.874-5.383-6.169-6.019-9.888Z" transform="translate(34.776 193.544)"/><path class="a" d="M935.438,557.414a4.809,4.809,0,0,1-1.6-.634c-2.188-2.044-4.307-4.163-6.591-6.392.621-.118,1.318-.486,1.648-.276,2.867,1.823,5.76,3.672,6.426,7.418Z" transform="translate(30.47 189.616)"/><path class="a" d="M946.869,554.273l.153-.4.056.5Z" transform="translate(52.895 193.985)"/><path class="a" d="M939.17,550.6c-.621-.611-1.243-1.221-2.2-2.168,2.145.069,2.145,1.148,2.072,2.282Z" transform="translate(41.581 187.77)"/><path class="a" d="M942.083,549.154c-.446-.067-.894-.133-.384-.058-.512-.131-.086-.021.313.124C941.987,549.255,942.083,549.154,942.083,549.154Z" transform="translate(46.72 188.461)"/><path class="a" d="M942.948,552.263c-1.885-.555-1.545-1.806-.96-3.156.024-.026-.073.075-.047.041.285,1.065.54,2.166.8,3.268Z" transform="translate(46.791 188.535)"/></g></svg>