<svg xmlns="http://www.w3.org/2000/svg" width="520.322" height="1086.973" viewBox="0 0 520.322 1086.973"><defs><style>.a{fill:#f0f0f0;}</style></defs><g transform="translate(-1233.695 -240.545)"><path class="a" d="M1508.421,891.694a27.54,27.54,0,0,0-1.993,2.987,38.3,38.3,0,0,0-1.473,4.117,27.444,27.444,0,0,0,3.913-.72c11.906-4.3,23.338-2.917,34.68,2.3,5.646,2.6,11.4,4.943,16.583,8.412,3.71,2.484,7.469,4.929,10.939,7.727,8.7,7.017,17.26,14.2,25.826,21.382a21.457,21.457,0,0,1,3.537,3.827,137.728,137.728,0,0,1,16.057,30.141c4.3,10.757,5,21.856,4.916,32.914a81.847,81.847,0,0,1-8.886,37.428c-5.85,11.231-11.852,22.427-18.573,33.147-3.924,6.259-9.067,11.862-14.237,17.206a116.983,116.983,0,0,0-21.184,29.566c-.331.669-.645,1.351-1.035,1.985-1.178,1.9-3.653,2.537-5.081,1.029-8.916-9.43-20.594-14.53-31.757-20.437a32.7,32.7,0,0,0-4.71-2.221c-10.784-3.648-19.849-10.078-28.3-17.46a23.772,23.772,0,0,1-4.276-5.135c-3.2-5.032-6.31-10.129-9.281-15.3A92.385,92.385,0,0,1,1463.753,1036a42.456,42.456,0,0,0-1.964-5.479c-1.438,2.248-2.359,3.664-3.261,5.1q-15.092,23.98-30.17,47.969c-5.151,8.214-10.015,16.613-15.375,24.686-10.725,16.152-21.693,32.142-32.581,48.188-3.066,4.52-6.2,9-9.306,13.487-6.08,8.786-12.076,17.628-18.286,26.322a112.356,112.356,0,0,1-8.1,9.739c-8.7,9.652-15.7,20.523-22.752,31.365-9.357,14.386-19.026,28.553-29.566,42.1-8.542,10.982-16.856,22.17-25.94,32.689-4.65,5.384-10.595,9.725-16.277,14.118-3.244,2.505-9.16.978-12.049-2.605-1.693-2.1-3.066-4.458-4.431-6.476.36-.872.423-1.549.75-1.725,5.04-2.695,8.566-7.48,13.885-9.866,1.947-.877,3.513-2.752,5.062-4.355,8.45-8.756,16.783-17.623,25.279-26.338,4.68-4.8,9.931-9.084,14.33-14.118,8-9.165,15.841-18.5,23.226-28.169,7.226-9.46,13.793-19.421,20.662-29.152q1.5-2.125,3.106-4.176c12.258-15.711,22.479-32.773,33.155-49.548,6.532-10.259,13.839-20.022,20.767-30.03,11.895-17.184,23.1-34.769,32.277-53.6,6.968-14.289,14.441-28.331,21.458-42.6,5.484-11.145,10.611-22.465,15.892-33.71a4.508,4.508,0,0,0,.228-.712c3.959-14.441,10.779-27.627,17.669-40.814,3.331-6.378,5.934-13.135,9.067-19.621a17.751,17.751,0,0,0,2.147-8.564,12.314,12.314,0,0,1,.136-2.232,2.362,2.362,0,0,1,2.567-2.113,2.621,2.621,0,0,1,2.066,2.7,7.982,7.982,0,0,1-.081,1.487c-1.27,8.65-3.4,16.927-8.379,24.391a197.869,197.869,0,0,0-13.419,22.357,105.471,105.471,0,0,0-9.349,32.093,129.211,129.211,0,0,0-1.2,23.8,90.639,90.639,0,0,0,6.31,29.019c3.735,9.533,9.335,18.11,14.844,26.671,2.979,4.631,7.526,7.9,12.133,10.906,3.334,2.175,6.7,4.287,10.075,6.4a15.9,15.9,0,0,0,3.253,1.8c11.64,3.827,22.189,9.845,32.575,16.179,3.759,2.294,7.418,4.748,11.424,7.323,1.36-2.353,2.638-4.737,4.071-7.022a128.513,128.513,0,0,1,18.276-23.495c9.98-9.88,17.447-21.634,24.158-33.862,4.062-7.394,8.005-14.874,10.681-22.926a99.631,99.631,0,0,0,5.427-37.271c-1.056-19.348-8.488-36.039-19.557-51.444a30.892,30.892,0,0,0-4.512-4.951c-11.686-10.435-23.849-20.285-37.136-28.624a82.383,82.383,0,0,0-23.719-10.459c-3.6-.9-7.4-2-11-1.7-7.984.666-15.738,2.475-20.93,9.587a43.309,43.309,0,0,1-3.862,4.393c-.157.165-.956-.081-1.289-.349a1.67,1.67,0,0,1-.664-1.216,4.7,4.7,0,0,1,.8-2c.861-1.208,2.15-2.185,2.743-3.5,4.5-9.966,8.737-20.044,11.364-30.709.043-.179-.2-.425-.512-1.051a10.979,10.979,0,0,0-2.218,1.4,18.765,18.765,0,0,0-2.8,3.478c-5.5,9.419-11.242,18.657-14.538,29.263a119.756,119.756,0,0,1-8.832,20.488c-5.833,10.955-11.938,21.8-18.571,32.285a117.769,117.769,0,0,1-19.289,23.632c-7.832,7.253-15.63,14.671-24.234,20.924a140.667,140.667,0,0,1-31.151,17.352c-11.1,4.369-22.452,7.976-33.529,12.358a54.009,54.009,0,0,1-18.148,3.632c-1.979.065-3.946.42-5.92.634-2.949.32-5.89.739-8.845.929-6.418.412-12.91.219-19.052,2.611a3.834,3.834,0,0,1-.731.138c-2.107.36-4.244-1.863-3.2-3.632,3.074-5.208,1.806-10.614,1.018-15.954-1.01-6.863-2.448-13.663-3.518-20.521a36.407,36.407,0,0,1-.265-7.372c.4-8.182.2-16.382,1.644-24.526a100.739,100.739,0,0,1,5.027-19.416c2.814-7.169,5.755-14.294,8.339-21.547a53.332,53.332,0,0,1,11.878-18.739c8.531-9.027,17.387-17.715,26.788-25.9a86.21,86.21,0,0,1,33.862-18.067c8.843-2.494,17.663-5.078,26.565-7.348a144.43,144.43,0,0,1,37.607-4.74c14.73.176,29.19,2.521,43.725,4.347a14.65,14.65,0,0,0,2.974.179c6.771-.528,13.281,1.108,20,2.467,2.242-3.15,2.86-6.86,3.737-10.37,2.286-9.151,4.293-18.376,6.34-27.587a32.173,32.173,0,0,0,.62-5.181,115.594,115.594,0,0,1,4.052-23.44c3.426-12.794,4.8-25.853,5.887-39,.591-7.155,2.161-14.227,3.247-21.344,1.495-9.809,2.86-19.641,4.444-29.434,1.11-6.857,2.394-13.688,3.778-20.494a227.641,227.641,0,0,0,3.978-28.8c.471-6.438,1.541-12.827,2.272-19.248a18.734,18.734,0,0,0-.4-7.515c-.59,2.015-1.146,4.043-1.785,6.042-.682,2.123-1.357,4.255-2.186,6.324-3.141,7.843-5.72,16-9.657,23.421-7.9,14.909-16.058,29.726-27.048,42.737-11.6,13.731-24.031,26.522-39.389,36.134-3.575,2.237-7.158,4.471-11.526,4.889a8.93,8.93,0,0,0-2.1.726c-8.881,3.307-18.146,4.932-27.446,6.543a41.8,41.8,0,0,1-13.932.263c-6.085-.943-12.412-.634-18.622-.441-9.349.287-18.194-2.335-27.188-4.155a4.552,4.552,0,0,1-4.052-4.634c-.133-4.959-.244-9.926-.116-14.885.181-6.958.655-13.907.883-20.865a218.049,218.049,0,0,1,3.307-31.792c.488-2.687.886-5.392,1.419-8.068a90.854,90.854,0,0,1,10.143-26.319c2.026-3.653,4.9-6.876,7.624-10.088,2.248-2.643,4.848-4.986,7.293-7.461,3.729-3.767,8.54-5.977,12.994-8.6,6.411-3.778,13.214-6.89,19.846-10.294a31.268,31.268,0,0,1,15.673-3.821,35.276,35.276,0,0,0,9.547-1.205c5.8-1.435,11.686-2.21,17.558-3.2,8.206-1.379,16.306-.959,24.472-.282a115.93,115.93,0,0,1,21.208,3.778,17.715,17.715,0,0,1,4.23,1.425c4.737,2.754,9.875,4.588,14.825,6.849,4.2,1.92,7.8,5.157,11.67,7.811,1.148.788,2.3,1.568,4.1,2.792.566-4.135,1.153-7.456,1.457-10.8.986-10.958.913-21.9-2.505-32.464a57.2,57.2,0,0,0-6.354-14.091c-2.1-3.155-5.853-5.295-9.655-6.557-12.439-4.119-25.222-4.788-38.176-3.553a21.026,21.026,0,0,1-4.442.1c-14.828-1.747-28.551-6.494-40.527-15.578a51.006,51.006,0,0,1-12.028-12.133,4.414,4.414,0,0,1-.452-.59c-1.8-4.054-3.328-8.247-5.433-12.133a30.877,30.877,0,0,1-3.954-11.9,50.3,50.3,0,0,0-2.161-10.2,40.463,40.463,0,0,1-1.8-11.749c-.133-9.43-1.3-18.858.133-28.3,1.154-7.6,1.568-15.345,3.171-22.839a40.518,40.518,0,0,0,.428-15.5c-.422-2.456-.127-4.314,1.679-6.1.68.133,1.563.049,2.069.444,5.43,4.225,11.941,5.977,18.276,8.152a37.809,37.809,0,0,1,6.9,2.611c2.595,1.519,5.078,3.055,8.13,3.494a5.685,5.685,0,0,1,2.673,1.224c6.313,5.241,14.056,8.409,20.031,14.2a159.328,159.328,0,0,0,13.187,10.9c4.542,3.545,8.249,7.849,12.157,12.036a64.408,64.408,0,0,1,14.146,24.258c2.324,7.055,4.569,14.059,5.219,21.655.669,7.854,3.039,15.556,4.544,23.351,1.246,6.457,4.77,11.99,7.833,17.517,3.61,6.516,7.526,12.832,10.5,19.7.9,2.085,1.3,4.756,4.241,6.148.52-3.718-.287-7.1-.994-10.351a25.237,25.237,0,0,1,.073-8.807,130.541,130.541,0,0,0,1.294-14.831c.171-14.17.442-28.358-.065-42.512-.371-10.384-.412-20.859-2.6-31.121a8.43,8.43,0,0,1-.184-2.226c.623-10.727-1.059-21.328-1.8-31.979-.412-5.926-1-11.849-2.735-17.366-.628-.441-1.007-.75-1.425-.994-5.7-3.355-11.822-4.29-18.451-4.666-10.11-.577-20.3-1.6-29.789-5.983-9.262-4.279-16.94-10.161-22.316-19.028a105.307,105.307,0,0,1-13.371-35.378,50.087,50.087,0,0,1-.536-16.344c.387-2.771.138-5.43-2.175-7.182.877-2.454,2.846-3.326,4.225-2.183,6.565,5.441,14.828,5.232,22.419,7.2,4.807,1.246,9.769,1.942,14.514,3.377,6.264,1.9,11.548,5.565,16.5,9.874,7.613,6.627,13.146,14.852,18.53,23.2a36.168,36.168,0,0,1,2.624,6.126c.544,1.338,1.024,2.7,1.481,3.913,2.746.382,3.513-.924,3.239-2.979-.3-2.215-.864-4.393-1.219-6.6-1.958-12.258-3.886-24.521-5.934-37.464-.978-.455-2.478-1.262-4.054-1.874a43.451,43.451,0,0,1-14.947-9.674,36.25,36.25,0,0,1-11.093-23.849c-.669-11.878-1.189-23.814.894-35.684,1.073-6.1,1.568-12.3,2.318-18.4,1.568-1.389,2.763-.723,3.77.607,5.024,6.624,11.616,11.532,18.118,16.537a17.926,17.926,0,0,0,2.3,1.235,23.47,23.47,0,0,0,3.358-2.443c2.443-2.478,4.7-5.135,7.109-7.651a22.679,22.679,0,0,0,3.927-6.232c1.75-3.675,5.23-3.756,7.648-.515a48.7,48.7,0,0,0,3.995,5.322c5.1,5.159,7.713,11.426,8.759,18.471.62,4.182,1.516,8.35,1.75,12.553a46.555,46.555,0,0,1-.636,11.112c-1.82,9.641-4.962,18.758-12.482,25.658-4.29,3.935-7.166,8.851-9.807,13.923a11.739,11.739,0,0,0-1.281,4.214c-.87,9.425-.16,18.817.821,28.2a63.3,63.3,0,0,1,.772,6.646c-.011,3.949.552,7.862.612,11.816.049,3.383,2.1,6.733,3.491,10.727.84-2.023,1.458-3.6,2.14-5.148,2.107-4.767,4.041-9.625,6.4-14.267,5.733-11.291,14.053-20.51,24.044-28.12,3.689-2.811,8.2-4.558,12.374-6.708,1.091-.561,2.519-.561,3.5-1.24,4.853-3.375,10.373-3.347,15.816-2.955,7.131.515,14.484-.49,21.3,2.668a5.667,5.667,0,0,0,2.21.26c11.824.154,18.373,7.575,23.134,17.127a74.745,74.745,0,0,1,6.175,17.55,25.718,25.718,0,0,0,3.115,7.467c2.061,3.475,1.554,6.508-.312,9.449-.872.195-1.416.509-1.814.376-4.9-1.62-9.72-1.143-14.633.095-6,1.514-12.016,3.258-18.132,3.919-5.853.634-11.711.125-16.586-4.442-3.591-3.364-7.9-5.969-11.884-8.913a43.881,43.881,0,0,1-4.764-3.575c-5.056-4.924-11.022-5.736-17.8-5.065-11.329,1.121-19.334,6.979-25.461,16.112-1.487,2.218-2.8,4.447-5.362,5.983-2.605,1.56-3.377,4.406-2.8,7.84,2.3,13.7,4.756,27.411,6.221,41.215a447.577,447.577,0,0,1,2.559,64.051c-.336,8.948-.482,17.9-.65,26.858-.035,1.939.2,3.884.311,5.761,1.863.225,1.722-.913,1.926-1.768,1.836-7.721,2.8-15.678,6.395-22.915,1.543-3.109,2.667-6.462,4.488-9.392,4.872-7.851,8.211-16.42,12.165-24.705,3.323-6.96,8.074-13.076,12.6-19.288a6.772,6.772,0,0,0,.49-.561c5.66-10.023,14.939-15.551,24.8-20.664,15.71-8.152,31.728-8.859,48.362-3.575,7.824,2.483,15.7,4.8,23.05,8.515a87.144,87.144,0,0,1,9.576,5.66c3.285,2.226,6.3,4.845,9.533,7.155a22.453,22.453,0,0,0,4.572,2.44c4.8,1.955,9.926,3.12,14.205,6.327.886.664,2.4.439,3.586.769,2.708.756,4.211,2.979,3.377,5.649a15.32,15.32,0,0,1-3.05,5.855c-7.889,8.42-12.529,19.107-19.752,27.977a18.2,18.2,0,0,0-2.838,4.371c-4.187,10.134-12.97,14.619-22.349,18.378-3,1.2-6.05,2.28-9.122,3.28-6.527,2.129-13.268,1.836-19.941,1.267-6.408-.547-12.756-1.8-19.161-2.408a75.355,75.355,0,0,1-12.4-2.424,225.9,225.9,0,0,0-22.455-5.016,46.8,46.8,0,0,0-23.535,1.893c-.466.168-.91.617-1.352.6-6.08-.249-9.487,3.629-12.5,8.076-2.93,4.32-5.9,8.618-8.618,13.07a14.5,14.5,0,0,0-1.9,5.582c-2.034,16.261-3.943,32.537-5.877,48.811-.555,4.664-1.07,9.333-1.587,13.869,2.142.972,2.513-.514,3.087-1.408,3.637-5.644,7.261-11.3,10.806-17,8.4-13.493,20.448-22.977,34.162-30.371,4.967-2.679,10.665-4.033,16.1-5.79a11.276,11.276,0,0,1,4.436-.1,2.82,2.82,0,0,1,2.264,4.363c-3.036,4.176-3.938,9.086-5.265,13.853a66.8,66.8,0,0,1-7.646,16.921,42.869,42.869,0,0,1-17.125,16.2c-6.384,3.288-12.28,7.537-19.318,9.552-1.487.428-2.724,1.731-4.42,2.857a10.463,10.463,0,0,0,2.213,1.527,107.806,107.806,0,0,1,32.594,16.055c7.18,5.059,12.125,11.659,16.212,19.118a82.726,82.726,0,0,1,4.311,9.509,16.02,16.02,0,0,1,.518,10.95c-.228.71-.8,1.376-.821,2.069-.119,5.839-3.944,9.427-7.806,12.973-8.2,7.526-17.739,11.811-29.019,11.594a39.685,39.685,0,0,1-22.36-7.2,17.3,17.3,0,0,1-4.81-4.6c-4-6.337-7.188-13.008-8.036-20.661-.848-7.67-1.728-15.3-1.235-23.045a90.131,90.131,0,0,0-.412-9.536,35.493,35.493,0,0,0-1.833,19.6,16.983,16.983,0,0,1,.008,5.119c-.273,2.7-.856,5.376-1.116,8.082-.932,9.636-2,19.267-2.6,28.924-.675,10.952-3.334,21.612-4.361,32.491a170.3,170.3,0,0,1-4.271,23.44c-.8,3.372-.891,6.9-1.568,10.31-2.364,11.925-4.845,23.825-7.263,35.739a20.77,20.77,0,0,0-.206,2.275c1.706.623,2.061-.8,2.6-1.655,1.853-2.941,3.616-5.939,5.409-8.921,8.323-13.831,19.795-24.9,31.736-35.449,8.935-7.892,18.14-15.543,27.738-22.606,9.192-6.763,19.129-12.466,30.382-15.342,6.256-1.6,12.48-3.326,18.785-4.7,3.364-.731,6.925-1.454,10.291-1.113,10.354,1.051,20.767,1.389,31.015,3.813,13.227,3.131,23.532,10.367,31.825,20.716a83.994,83.994,0,0,0,11.137,11.987,32.367,32.367,0,0,1,4.813,5.593c3.1,4.184,6.045,8.48,9.092,12.7,2.486,3.44,2.73,6.7.374,10.362-5.238,8.144-10.329,16.393-15.936,24.28-7.708,10.847-17.054,20.082-28.97,26.344a47.166,47.166,0,0,1-10.267,4.3c-6.256,1.56-12.677,2.44-19.012,3.7-6.281,1.251-12.445.211-18.479-1.2a306.264,306.264,0,0,1-39.809-12.42c-9.035-3.469-17.671-7.973-26.668-11.562-10.115-4.035-20.634-5.414-31.389-2.727a31.2,31.2,0,0,0-6.974,2.559,84.818,84.818,0,0,0-20.231,15.134,22.289,22.289,0,0,0-5.541,9.533q-5.411,17.432-11.1,34.78c-1.473,4.469-3.35,8.807-5.1,13.181-.626,1.563-1.04,3.342-3.237,4.122-.466-.756-.953-1.546-1.441-2.343,2.846-1.993,3.545-5.281,4.634-8.2,1.9-5.086,3.377-10.332,4.991-15.524a24.15,24.15,0,0,0,.469-3c-.972.932-1.5,1.208-1.655,1.622-2.332,6.245-4.688,12.482-6.863,18.782A51.6,51.6,0,0,0,1508.421,891.694Zm12.393-33.423c-.439.114-1.007.1-1.281.379-.244.246-.163.813-.222,1.238.312-.122.729-.162.916-.387a5.661,5.661,0,0,0,.607-1.254l.46-6.511c1.823-1.183,1.823-1.183,1.165-3.567-.42,1.406-.766,2.559-1.075,3.781Q1521.1,855.11,1520.813,858.271Zm-58.206,8.068a35.058,35.058,0,0,0-3.153,1.549c-.986.6-2.7.393-2.846,2.641a30.849,30.849,0,0,0,4.969-1.806c.612-.341.712-1.6,1.048-2.41.528.382,1.04.791,1.6,1.127.146.089.428-.043.647-.076-.108-.29-.165-.791-.333-.829A12.637,12.637,0,0,0,1462.607,866.339Zm105.43-561.828c.845-.783,1.969-1.419,2.478-2.381a49.872,49.872,0,0,0,2.177-5.509c2.728-7.071,4.29-14.237,1.95-21.775a8.136,8.136,0,0,1-.344-2.944c.409-5.723-1.928-10.635-4.409-15.524-2.378-4.683-5.668-8.03-11.708-8.019-4.666,4.387-9.7,8.745-12.177,14.69,2.83,4.6,5.4,8.772,8.125,13.2a13.376,13.376,0,0,0,2.275-1.389c2.386-2.159,4.68-4.42,7.033-6.614,1.956-1.823,4.285-1.267,5.281,1.246a20.594,20.594,0,0,1,.66,2.126,40.693,40.693,0,0,1,.851,19.1c-.915,4.585-1.4,9.257-2.074,13.888-1.1.257-1.687.674-.506,1.636C1567.781,305.662,1567.911,305.088,1568.038,304.511Zm-252.163,935.016c-.669.179-1.592.138-1.966.571-4.374,5.073-8.87,10.059-12.913,15.389a106.619,106.619,0,0,1-12.315,13.818,270.431,270.431,0,0,0-19.752,20.19c-5.85,6.708-12.664,12.583-19.134,18.741a17.088,17.088,0,0,1-3.783,2.324,12.566,12.566,0,0,0-6.259,7.738c4.823,4.932,7.277,5.333,12.2,1.728a95.137,95.137,0,0,0,18.971-18.823c5-6.478,9.6-13.29,14.917-19.5,10.519-12.282,19.464-25.688,28.659-38.923a13.671,13.671,0,0,0,1.211-3.393c1.579-1.438,1.579-1.438,1.373-2.952A2.336,2.336,0,0,0,1315.875,1239.527Zm325.574-715.539a17.421,17.421,0,0,0,8.989,2.979c6.673.523,13.352,1.067,19.985,1.928,13.384,1.741,25.6-1.844,37.23-7.962,5.874-3.093,9.422-8.412,12.415-14.151-4.658-3.1-9.281-5.622-13.219-8.951a112.245,112.245,0,0,1-11.391-11.77c-3.317-3.773-7.312-7.109-9.292-11.941,1.879-1.208,2.865-.238,3.45.775,4.3,7.41,10.359,13.376,16.374,19.253,4.344,4.244,9,8.574,15.548,9.777,2.993-2.137,4.756-5.127,6.638-8.025q4.663-7.186,9.387-14.335c1.5-2.275,3.248-4.412,4.52-6.806.748-1.4.777-3.188,1.116-4.74-3.377-2.066-6.224-4.092-9.314-5.614s-6.454-2.44-9.617-3.805a23.963,23.963,0,0,1-4.447-2.7c-2.419-1.75-4.677-3.718-7.123-5.422-3.055-2.126-6.026-4.547-9.392-6.015-9.078-3.965-18.219-7.873-28.248-9.484a17.066,17.066,0,0,1-2.172,1.8c-1.056.631-2.25,1.026-3.347,1.6-1.53.8-3.066,1.6-4.534,2.508-8.905,5.492-13.918,13.956-17.631,23.364a8.947,8.947,0,0,0-.041,2.868c6.213-.255,11.906-.555,17.6-.707,9.17-.241,18.33-1.192,27.527-.154a73.85,73.85,0,0,0,11.166.263,68.733,68.733,0,0,1,14.075,1.151,84.431,84.431,0,0,0,12.583.883c1.842.03,3.694-.723,6.619-1.351-1.1,1.888-1.417,3.245-2.245,3.732-4.155,2.451-8.618,1.606-13.016.756-3.9-.753-7.786-2.34-11.665-2.291-12.929.162-25.812-1.674-38.739-.726-4.382.322-8.856.095-13.645,1.582a15.018,15.018,0,0,0,1.544,3.48c2.378,2.868,4.9,5.617,7.4,8.382q5.972,6.6,11.987,13.16l.13-.138c-1.1-.425-2.446-.585-3.263-1.324-3.3-2.979-6.446-6.126-9.625-9.238-4.753-4.653-9.485-9.327-14.69-14.449-7.854,2.159-16.187,3.951-23.034,10.2,3.995,5.647,7.77,11.1,11.689,16.447,1,1.373,2.578,2.318,3.675,3.64,1.384,1.668,2.546,3.523,3.8,5.3l.127-.141c-1.251-.666-2.8-1.056-3.7-2.042-3.819-4.179-7.5-8.488-11.12-12.843-2.662-3.2-4.983-6.719-8.772-8.463-6.877,2.37-11.007,4.864-15.2,9.119.956,1.007,2.221,1.858,2.822,3.047,2.711,5.354,6.668,9.747,10.506,14.254a14.96,14.96,0,0,1,1.609,3.179c-3.076-.891-4.715-3.521-6.684-5.685-3.653-4.011-7.147-8.168-10.676-12.225-5.227,3.041-10.473,7.965-15.922,15.559-2.492,3.469-5.983,6.435-7.02,10.928,1.988.8,2.518-.731,3.531-1.192,1.322-.6,2.752-1.517,4.084-1.441,10.8.628,21.739-2.291,32.44,1.322,2.795.945,5.82,1.208,8.661,2.045A22.655,22.655,0,0,0,1641.449,523.988ZM1372.178,919.094c1.85-1.614,3.727-3.2,5.541-4.845,2.754-2.508,5.389-5.154,8.214-7.58,9.07-7.789,18.98-14.416,28.83-21.173a148.7,148.7,0,0,1,26.111-14.273c8.634-3.664,17.428-7.2,26.917-8.306.544-.062,1.005-.834,1.5-1.276-.474-.55-.745-1.162-1.078-1.2-4.918-.547-9.85-1.462-14.768-1.4-6.925.087-13.84-.16-20.808.647-7.9.913-15.835,2.015-23.3,4.3-11.356,3.477-23.091,5.614-34.173,10.2-5.817,2.408-11.358,4.978-16.277,8.81-6.08,4.737-12.06,9.6-17.991,14.527a77.983,77.983,0,0,0-5.861,5.736c-2.6,2.671-5.064,5.482-7.735,8.076a48.824,48.824,0,0,0-11.277,16.515c-3.6,8.715-7.3,17.393-10.833,26.135a46.608,46.608,0,0,0-2.974,9.2c-1.98,11.269-3.412,22.622-3.166,34.1a59.844,59.844,0,0,0,1.078,8.832c1.6,9.308,3.805,18.525,3.979,28.042a17.012,17.012,0,0,0,1.089,3.829c7.383-.024,14.571.284,21.734-.55,7.632-.888,15.242-1.961,22.861-2.952,6-2.31,12-4.65,18.021-6.914,3.938-1.481,7.938-2.795,11.873-4.284,2.554-.967,5.018-2.175,7.559-3.174a129.435,129.435,0,0,0,32.86-18.709c2.337-1.842,4.469-3.946,6.808-5.785A146.466,146.466,0,0,0,1460,959.561c3.088-4.8,6.446-9.444,9.26-14.4,7.35-12.946,14.749-25.888,18.958-40.334a45.882,45.882,0,0,1,3.3-8.276c5.278-10.134,10.324-20.45,19.267-28.079.133-.114.089-.433.13-.655-3.588-2.887-3.651-3.188-5.509-2.806-4.6.945-9.278-1.614-13.872.547-.875.412-2.337-.5-3.545-.715a21.967,21.967,0,0,0-11.673.918c-9.094,3.32-18.316,6.327-27.584,9.141-20.542,6.24-38.65,16.759-54.826,30.734-10.018,8.653-17.9,19.2-26.021,29.534-.13.168-.081.474-.184,1.186,1.184,2,2.662,4.274,3.919,6.662,6.662,12.667,10.318,26.327,12.6,40.332a62.331,62.331,0,0,1,.108,21.436,70.787,70.787,0,0,1-2.9,9.915,1.422,1.422,0,0,1-2.362.631c-.065-.477-.333-1.045-.157-1.384,3.656-7.128,4.046-14.871,3.7-22.563a120.577,120.577,0,0,0-6.345-32.838c-2.43-7.258-5.422-14.321-10.327-20.992-2.2,2.1-5.389,1.305-7.183,3.808-2.887,4.035-5.842,8.025-8.769,12.033a6.34,6.34,0,0,0-1.2,4.9c1.606,11.3,3.2,22.6,4.658,33.919,1.313,10.164,1.6,20.3-1.549,30.26-.969,3.066-1.863,6.161-2.6,9.289-.2.834.308,1.831.479,2.73l-4.526-2.668c6.034-10.424,7.266-21.431,6.562-32.692-.477-7.646-1.552-15.256-2.416-22.874a124.125,124.125,0,0,0-2.885-16.564,20.23,20.23,0,0,0-3.142,2.662c-5.292,7.18-10.692,14.273-14.37,22.519a264.176,264.176,0,0,0-14.592,40.554c-.539,2.061-.6,4.322-3.239,6.069.371-2.429.536-4.368.975-6.243,3-12.851,8.052-25,12.878-37.22a83.768,83.768,0,0,1,12.179-21.225c2.3-2.925,4.339-6.064,6.662-8.973,2.589-3.239,2.435-6.281-.1-9.368-4.263-1.281-8.417-.8-12.561.227a44.461,44.461,0,0,0-15.478,7.055c-1.254.9-2.543,2.557-4.826.956,1.443-2.7,4.2-3.507,6.456-4.791a50.052,50.052,0,0,1,27.979-6.6l4.225,3.727c.74-.864,1.4-1.592,2.007-2.359,6.318-7.97,12.656-15.922,18.9-23.949a19.465,19.465,0,0,0,1.839-3.876Zm245.8-176.2-.01-.046c.883,1.59.073,2.776-.829,4.054q-6.853,9.754-13.579,19.6a14.414,14.414,0,0,0-1.229,3.285c.742.379,1.238.861,1.582.772a261.08,261.08,0,0,1,32.009-5.912c.333-1.717.219-3.361.937-4.463,5.56-8.531,11.015-17.168,18.668-24.071.32-.29.991-.187,2.711-.455-8.766,8.759-15,17.774-19.418,28.93,14.622-.864,28.407.192,41.913,4.027,2.056-1.9,3.884-3.551,5.666-5.249,1.974-1.882,3.851-3.87,5.874-5.7,1.72-1.549,3.282-3.545,6.9-3.491-2.684,2.437-4.8,4.154-6.665,6.115a40.062,40.062,0,0,0-4.6,5.812,2.651,2.651,0,0,0,1.812,4.073c4.128.831,8.288,1.555,12.466,2.053,4.932.588,9.888,1.091,14.85,1.265,6.148.214,12.209,2.2,18.492.471,2.169-.6,4.877-.7,6.844.593.552,2.134-.536,3.188-1.744,2.836-3.713-1.086-7.326-.674-11.047-.266-2.167.238-4.415-.379-6.63-.488-4.16-.2-8.328-1.27-12.442-.265-.693,6.8,1.129,10.79,10.844,23.947-.964-.279-1.828-.26-2.2-.68-2.123-2.405-4.469-4.707-6.1-7.429-3.309-5.511-6.213-11.266-9.165-16.7-7.692-1.549-15.223-3.068-22.755-4.582-11.714-2.354-23.432-4.807-35.479-3.968-6.186.433-12.331,1.452-18.516,1.882-9.311.647-17.983,3.683-26.639,6.776a92.441,92.441,0,0,0-8.91,4.282c15.432,8.531,14.706,7.239,23.692,23.836a45.4,45.4,0,0,0,10.37,13.49,37.861,37.861,0,0,1,2.673,3.036c-2.3-.669-3.418-.674-4.038-1.235a46.467,46.467,0,0,1-6.245-6.337c-2.064-2.771-3.573-5.947-5.387-8.91-2.459-4.019-4.442-8.5-7.6-11.879-4.737-5.064-10.15-9.782-18.148-6.565a1.652,1.652,0,0,1-1.414-.141c-2-1.741-3.751-.506-5.386.506a81.421,81.421,0,0,0-8.022,5.436c-7.174,5.752-14.373,11.486-21.279,17.55-5.411,4.753-10.427,9.961-15.553,15.034-.8.791-1.836,1.809-.431,3.477,1.184-.729,2.446-1.381,3.572-2.221,3.981-2.974,7.927-5.994,11.868-9.021,5.546-4.266,12.108-5.931,18.809-6.4a52.363,52.363,0,0,1,26.105,4.834c7.193,3.353,14.427,6.632,21.734,9.731a266.886,266.886,0,0,0,41.829,13.29c6.8,1.641,13.617,2.635,20.653,1.709,9.926-1.3,19.725-3.285,28.4-8.387,9.051-5.322,17.159-12.1,23.188-20.759a255.491,255.491,0,0,0,15.145-24.74c3.117-5.79,2.329-12.106-1.229-17.672a52.114,52.114,0,0,0-11.123-12.975c-2.489-1.993-4.376-4.726-6.622-7.042-4.317-4.455-8.458-9.122-13.119-13.187a33.987,33.987,0,0,0-13.655-7.375c-8.647-2.259-17.352-4.252-26.368-4.469-3.719-.089-7.421-.747-11.139-.867a30.4,30.4,0,0,0-7.3.612c-3.878.839-7.618,2.383-11.518,3.031-14.619,2.435-27.169,9.468-38.972,17.81-12.6,8.9-24.033,19.28-35.373,29.737a141.668,141.668,0,0,0-25.344,31.126,78.716,78.716,0,0,0-3.9,8.011c-.143.317.217.864.425,1.579a21.622,21.622,0,0,0,2.478-1.584c7.377-6.27,14.657-12.653,22.113-18.825a114.805,114.805,0,0,1,13.089-9.818c5.492-3.353,11.421-5.991,17.157-8.94a149,149,0,0,1,19.638-27.987C1616.324,745.317,1617.107,744.068,1617.973,742.9Zm-216.922-34.953-.366-.322a150.935,150.935,0,0,1,17.813-27.411c5.46-6.86,12.211-12.369,19.478-17.254,1.357-.913,3.247-1.563,3.044-3.8-2.088-3.445-5.72-4.2-9.1-4.133-7.174.146-14.416.534-21.271,3.052-11.518,4.236-21.1,10.974-27.633,21.639-.842,1.373-1.211,3.35-3.355,3.648-1.536-1.858-.105-3.337.788-4.626,9.016-12.992,20.821-21.875,36.711-24.686,1.427-.252,3.409-.374,4.07-1.305a4.547,4.547,0,0,1,5.26-1.733c6.546,1.652,13.8,1.021,18.853,5.929,8.994-5.777,17.55-11.3,26.14-16.77,1.671-1.064,3.45-1.966,5.221-2.863a96.609,96.609,0,0,1,24.621-8.385c9-1.809,18.083-3.193,27.132-4.756,2.451-.422,4.9-.915,7.366-1.192,2.635-.292,5.295-.371,8.209-.561-3.624-4.5-5.56-5.836-10.072-7.5a39.185,39.185,0,0,1-7.475-3.25,35.163,35.163,0,0,0-11.813-4.336c-2.183-.463-4.415-.764-6.541-1.408-8.225-2.5-16.832-1.162-25.16-2.589a7.346,7.346,0,0,0-2.2.306c-8.33,1.311-16.675,2.532-24.984,3.957-6.356,1.091-12.732,2.18-18.985,3.727-10.037,2.484-18.33,8.691-27.283,13.466a49.179,49.179,0,0,0-8.052,5.308c-11.489,9.43-18.874,21.639-23.3,35.671-4.208,13.344-5.7,27.232-6.771,41.06-.921,11.879-.514,23.863-.585,35.8-.011,1.584-.558,3.567,1.66,4.7,4.493-4.144,9.016-8.336,13.585-12.474.162-.149.777.2,1.479.409-1.76,5.809-8.764,7.892-10.392,14,7.128,2.917,14.248,3.762,21.458,4.109,8.166.39,16.385-.073,24.453,1.844a11.389,11.389,0,0,0,4.4-.36c10.023-1.793,19.865-4.282,29.723-6.838a61.835,61.835,0,0,0,23.592-12.2,185.439,185.439,0,0,0,38.292-41.5,245.616,245.616,0,0,0,15.161-26.511,227.774,227.774,0,0,0,12.658-29.385c1.092-3.269,2.315-6.562,2.023-10.042a8.1,8.1,0,0,0-6.221-2.356,78.582,78.582,0,0,0-10.419.333c-6.646.815-13.235,2.088-19.876,2.928-10.942,1.387-21.284,4.87-31.513,8.74a33.274,33.274,0,0,0-6.478,3.626c-.661.441-.845,1.6-1.284,2.391a5,5,0,0,0-1.368-.325c-.349.014-.683.336-1.024.52.352.149.742.469,1.045.4a4.2,4.2,0,0,0,1.2-.739,56.128,56.128,0,0,1,5.322-2.069c2.026-.574,4.136-.848,6.21-1.251l-.127-.168c-1.674,1.75-3.407,3.4-3.112,6.213.2,1.966-.043,3.976.073,5.956.276,4.7.737,9.39.964,14.094.314,6.446-.219,12.875-.436,19.315a157.99,157.99,0,0,1-3.486,28.765c-1.173,5.306-3.084,10.451-4.775,15.635-.33,1.018-.777,2.37-2.416,2.023-.117-.252-.352-.523-.293-.677a120.845,120.845,0,0,0,7.293-29.569c1.043-8.369,2.267-16.756,1.8-25.239q-.573-10.4-1.344-20.8a31.98,31.98,0,0,0-1.116-6.568c-.376-1.286-1.465-2.362-2.175-3.445-8.4,2.957-14.468,6.744-18.869,11.6-.414,4.626-.748,9.081-1.227,13.52-.777,7.158-1.836,14.292-2.448,21.463a122.526,122.526,0,0,1-12.412,43.414,43.089,43.089,0,0,1-8.258,12.317c-.872.853-1.63.845-2.234-.276.035-.273-.019-.593.114-.755,7.916-9.552,12.347-20.792,16.1-32.443,2.917-9.067,3.794-18.465,5.132-27.771,1.054-7.356,1.195-14.844,1.622-22.278.076-1.327.582-3.058-1.541-3.889-4.729,1.79-7.394,6.8-12.041,9.121-1.1-2.706,2.947-3.228,1.715-5.931-12.415,7.5-21.561,17.788-29.445,29.4C1408.225,698.509,1405.677,704,1401.051,707.942Zm144.769-148.991c-.23-1.194-.16-1.812-.436-2.118-9.991-11.131-21.65-20.429-33.122-29.918-12.875-10.649-24.895-22.054-35.032-35.47-6.914-9.154-13.62-18.354-18.733-28.654a51.77,51.77,0,0,0-2.711-4.461c-4.9-7.8-9.533-15.735-12.566-24.486a32.527,32.527,0,0,1-.788-3.548c3.117.482,3.494,2.833,4.043,4.493,3,9.073,7.99,17.095,12.846,25.187,5.232,8.726,9.8,17.85,16.35,25.777,6.651,8.044,12.823,16.491,20.518,23.619a48.4,48.4,0,0,0,4.274,3.152,23.263,23.263,0,0,0,1.72-9.918,139.848,139.848,0,0,0-13.119-59.179,9.833,9.833,0,0,0-2.028-3.047c-3.938-3.721-8.929-5.7-13.959-8.815a15.646,15.646,0,0,0,.211,2.86c4.03,12.575,6.659,25.479,9.167,38.414.536,2.763.875,5.525-.65,8.314-1.836-8.956-3.063-17.986-5.246-26.8-2.2-8.872-4.133-17.842-7.686-26.511-6.14-1.165-10.3-6.31-16.374-7.169-5.866-.831-10.635-5.113-17.617-5.56,2.264,9.365-.523,17.994-1.373,26.622,1.777.8,3.567,1.11,4.62,2.161,3.334,3.328,6.413,6.911,9.528,10.454.363.409.33,1.165.588,2.18-5.977-2.993-9.114-8.732-14.321-11.7-.658.655-1.227.945-1.295,1.327-1.073,6.11-2.391,12.2-2.053,18.462.531,9.882-.469,19.919,2.919,29.523a2.464,2.464,0,0,1,.095.737c.4,11.313,6.7,20.656,10.316,30.891a3.76,3.76,0,0,0,.734,1.295c4.236,4.526,8.027,9.557,13.517,12.71,4.74,2.719,9.485,5.476,14.446,7.74a64.358,64.358,0,0,0,18.544,5.262c7,.921,13.875-.035,20.794-.046,10.774-.014,21.336.647,31.129,5.763A11.017,11.017,0,0,0,1545.819,558.952Zm18.712,75.91c-.629.5-.956.636-.959.775-.052,11.388-.442,22.76.85,34.141a57.779,57.779,0,0,0,6.389,21.19,21.735,21.735,0,0,0,9.216,9.327c16.142,8.658,33.87,5.216,47.56-8.569.52-.525,1.235-1.151,1.3-1.785.477-4.837,3.738-9.092,2.5-14.378-.617-2.651-.964-5.322-2.221-7.781-2.478-4.861-4.764-9.831-7.47-14.56a22.207,22.207,0,0,0-4.9-5.484c-8.927-7.686-19.326-12.891-30.086-17.441a34.741,34.741,0,0,0-15.963-2.874c-2.009.133-3.943.555-4.669,2.792a4.958,4.958,0,0,0,.593,1.419,23.893,23.893,0,0,0,2.662,2.6c12.28,9.826,20.813,22.579,28.1,36.245a96.943,96.943,0,0,1,8.84,23.668c.309,1.319.019,2.464-1.72,2.481a8.2,8.2,0,0,1-.664-1.3q-.548-1.779-.983-3.591c-4.639-19.391-14.868-35.576-28.61-49.713C1571.41,639.041,1568.244,636.343,1564.531,634.862Zm-50.084-267.546c1.988-8.147.539-19.814-3.529-29.5-11.692-2.465-23.527-5.893-36.229-7.394-.65,3.1-1.882,6.015-1.741,8.864.463,9.436,1.888,18.739,5.9,27.256,2.147.691,4.452.788,5.787,1.974,4.518,4.025,9.88,4.217,15.4,4.312,2.172.038,4.342.379,6.51.582-4.046,1.8-8.2,1.46-12.247,1.192-4.108-.271-8.168-1.251-12.916-2.031a85.067,85.067,0,0,0,8.073,14.814,28.473,28.473,0,0,0,4.962,5.528c7.291,6.259,15.491,10.857,25.133,12.212,7.131,1,14.319,1.628,21.493,2.3,3.418.317,6.86.341,10.086.488,1.568-1.939.94-3.667.054-5.113a49.643,49.643,0,0,0-5.143-7.291c-7.339-8.206-15.971-14.9-25.092-21.014-8.669-5.812-17.257-11.748-25.84-17.688-.8-.555-2.2-1.181-1.11-2.838C1500.908,358.054,1506.6,363.79,1514.447,367.316Zm74.291-7.7c4.211-3.678,8.845-5.371,13.224-7.472,2.01-.964,4.222-1.573,6.1-2.741a32,32,0,0,0,4.266-3.572c3.25.417,5.614.907,7.992.983,3.721.116,7.451-.065,11.175-.089a35.35,35.35,0,0,1,23.873,8.88c5.094,4.358,10.145,8.767,15.221,13.146.674.582,1.219,1.63,2.578.588a37.6,37.6,0,0,0-7.686-19.64c-2.925-3.878-6.384-7.432-11.6-8.821-2.627-.7-5.327-1.1-7.859-1.861-5.577-1.682-11.194-1.755-16.878-1.9a48.227,48.227,0,0,1-5.883-.888c-3.732-.566-7.383-.59-10.906,1.135-1.549.758-3.293,1.11-4.878,1.806-5.69,2.494-11.264,5.146-16.05,9.284a95.474,95.474,0,0,0-20.9,25.943c-.785,1.4-1.833,2.784-1.473,5.222,1.408-1.124,2.41-1.812,3.282-2.638a38.619,38.619,0,0,1,23.321-10.524c6.7-.691,13.065.306,18.2,4.653,5.476,4.637,11.209,8.9,16.891,13.243A19.232,19.232,0,0,0,1646,388.481c3.434-.544,6.92-.85,10.3-1.639,2.79-.653,5.95-.777,8.271-3.764a72.1,72.1,0,0,1-8.729-21.956,4.176,4.176,0,0,0-1.56-2.435c-4.187-2.624-8.187-6.137-12.783-7.4-12.491-3.434-25.06-3.071-37.079,2.5-3.6,1.668-7.012,3.732-10.6,5.425C1592.6,359.787,1591.459,361.239,1588.738,359.619Zm-68.354-113.87a42.714,42.714,0,0,0-1.3,4.618,231.155,231.155,0,0,0-2.007,40.911,43.081,43.081,0,0,0,3.258,14.468c3.412,8.458,9.587,14.113,17.3,18.8,9.753,5.928,12.575,2.034,14.3-6.508a91.324,91.324,0,0,0,.073-34.818c-1.62-8.783-5.636-16.382-13-21.872-1.2-.891-2.408-1.768-3.559-2.719q-4.875-4.03-9.7-8.125C1524.253,249.243,1522.818,247.913,1520.383,245.75Zm151.149,190.7c-.368-.29-.7-.758-1.116-.842a53.161,53.161,0,0,0-28.629,2.142c-5.812,2.058-11.183,5.346-16.759,8.065a22.339,22.339,0,0,0-8.062,6.478c-2.724,3.532-5.36,7.142-8.266,10.516a81.154,81.154,0,0,0-11.329,17.439c-3.927,8.016-7.475,16.2-12.093,23.9-3.039,5.073-5.048,10.773-7.375,16.252-.5,1.175-.385,2.614-.677,4.894a18.407,18.407,0,0,0,2.115-2.481,84.739,84.739,0,0,1,11.895-17.073,65.764,65.764,0,0,0,12.431-20.9c4.9-13.512,12.621-25.325,24.236-34.214.439-.339,1.143-.33,2.9-.791-4.466,4.593-8.393,8.049-11.586,12.082a92.091,92.091,0,0,0-8.442,13.13c-2.4,4.406-5.281,8.8-4.878,14.755a365.529,365.529,0,0,1,36.153-19.118C1653.511,447.473,1654.094,447.638,1671.532,436.445ZM1541.919,547.36c.989-2.419-.347-4.073-1.173-5.78a54,54,0,0,1-3.087-8.3c-2.622-8.851-3.434-18.01-4.848-27.031a110.847,110.847,0,0,0-8.385-27.592c-2.215-5.04-5.728-9.192-9.184-13.463-5.054-6.248-11.64-10.749-17.2-16.377a6.175,6.175,0,0,0-1.82-1.281c-.747-.333-1.517-1.5-2.706.095a142.466,142.466,0,0,1,10.319,68.436c7.951,7.635,13.579,11.732,18.259,13.227a35.531,35.531,0,0,0,.915-5.089c.623-16.984-3.366-33.377-7.383-51.4,3.486,4.339,4.076,7.951,4.764,11.51,2.172,11.2,4.193,22.419,4.9,33.848.263,4.2,1.1,8.336-.062,12.542-.593,2.131.387,3.919,2.053,5.235C1532.1,539.747,1536.963,543.5,1541.919,547.36Zm28.51,74.762c3.515.84,6.085-1.089,8.645-2.272,6.965-3.212,13.66-7.014,20.645-10.178,9.065-4.106,15.066-11.05,19.659-19.578,2.979-5.53,4.5-11.524,6.083-17.517,1.587-6.012-.038-7.941-6.023-7.036a14.748,14.748,0,0,0-4.252,1.27,128.953,128.953,0,0,0-11.86,6.2c-16.8,10.552-27.44,26.284-36.085,43.617a8.89,8.89,0,0,0-.312,2.86c3.878-.91,5.249-4.222,7.743-6.172.95-.745,1.633-2.624,3.74-1.292C1576,615.536,1572.3,617.946,1570.429,622.122Zm-227.536,580.087c1.839-1.95,3.846-3.773,5.49-5.877,3.821-4.9,7.6-9.831,11.158-14.923,6.966-9.974,13.609-20.177,20.667-30.083,17.162-24.1,33.176-48.955,48.814-74.058,4.994-8.014,10.248-15.868,15.085-23.974,4.057-6.8,8.927-13.2,11.475-20.819a30.72,30.72,0,0,1,4.157-8.656,11.534,11.534,0,0,0,2.373-6.928c.01-3.97.125-7.941.162-11.914.008-.888.26-2.01-1.094-2.031-11.7,23.107-23.2,46.247-35.129,69.159-5.617,10.787-11.908,21.236-18.221,31.638-4.122,6.79-8.745,13.287-13.306,19.8-5.555,7.941-11.608,15.548-16.859,23.678C1365.93,1165.39,1354.826,1183.966,1342.893,1202.209Zm187.549-386.4c1.24-3.7,2.808-7.337,3.664-11.128,3.009-13.292,5.587-26.685,8.685-39.958,3.212-13.772,5.36-27.711,7.307-41.691.65-4.661,1.2-9.349,1.476-14.045.634-10.879,1.086-21.769,1.565-32.656a33.994,33.994,0,0,0-.669-4.536c-1.089,4.585-1.888,7.423-2.421,10.308-.812,4.385-1.373,8.815-2.167,13.2-1.368,7.542-2.911,15.052-4.23,22.6-.9,5.119-1.449,10.294-2.3,15.418-1.544,9.279-3.856,18.454-3.472,27.971a15.124,15.124,0,0,1-.254,2.215,321.836,321.836,0,0,1-6.519,38.125C1530.068,806.156,1528.754,810.76,1530.442,815.808Zm1.7-436.394c2.976,2.546,5.457,4.585,7.841,6.733,2.576,2.324,5.14,4.669,7.562,7.15,2.194,2.251,4.184,4.7,6.578,7.407a7.479,7.479,0,0,0-.368-7.318l-4.829-1.135c-1.349-4.228-3.1-8.355-3.94-12.661-1.159-5.977-4.182-10.836-7.079-16.049-4.48-8.052-11.24-13.753-17.431-20.1-1.045-1.067-2.489-2.595-4.91-1.138.9,9.105,4.851,18.075,2.714,27.467,3.415,2.684,6.332,5.284,10.511,6.324,2.825-5.62-1.389-10.741-.39-17.154C1532.132,365.967,1534.009,372.131,1532.137,379.414Zm32.025-106.078c-4.94,3.041-8.165,7.044-8.292,13.04a23.99,23.99,0,0,0,.344,5.942,39.15,39.15,0,0,1-.084,18.438c-.238.986-.642,2.456,1.265,3.236,2.383-1.741,3.77-4.339,5.021-7,3.778-8.035,4.764-16.678,5.067-25.382A9.7,9.7,0,0,0,1564.162,273.336Zm109.306,110.311c-.095-7.288-.165-7.467-3.827-11.182-1.544-1.565-2.99-3.242-4.631-4.7a50.816,50.816,0,0,0-4.593-3.223c-.273,7.84,3.922,13.105,6.827,19.107Zm-114.01,219.36.7.022c.593-3.876,1.327-7.732,1.736-11.627.409-3.867,1.416-7.735.709-11.933-4.826.49-2.714-5.354-6.5-6.535-.046,5.227,1.652,9.893,2.191,14.7C1558.873,592.74,1559.087,597.88,1559.458,603.007Zm-8.6-251.18c.444-5.051.758-10.162-1.2-16.6C1547.921,341.937,1551.447,346.709,1550.857,351.828Zm14.3,108.911c-.9,4.826-.734,5.839,1.284,10.273C1566.633,467.176,1566.966,463.853,1565.156,460.738Zm-1.129-11.589.859-.1-.385-4.138-.474.06Zm-1.7-11.507,1.235-.108c-.089-1.024-.176-2.05-.266-3.077l-.821.016C1562.429,435.53,1562.378,436.586,1562.329,437.642Zm-11.153-53.768-.355-.531a4.593,4.593,0,0,0-.539.915c-.038.117.244.339.379.515C1550.835,384.473,1551.006,384.175,1551.176,383.875Zm6.034,248.569-.176-.571a4.6,4.6,0,0,0-.425.772c-.025.068.225.233.349.352Zm19.272-103.873.2-.642-.528-.165a1.93,1.93,0,0,0-.141.628C1576.022,528.464,1576.32,528.51,1576.482,528.57Zm-20.9,113.339.176-.58-.49-.135a1.676,1.676,0,0,0-.108.555C1555.174,641.822,1555.439,641.858,1555.585,641.909Zm8.618-184.932.431.052-.165-.566Z" transform="translate(0 0)"/><path class="a" d="M1383.561,571.275c.1.932.2,1.86.474,4.4-2.026-4.16-3.6-6.744-2.218-9.958-.149-.425-.281-.845-.417-1.265l.639.1-.349,1.213c-2.6-4.3-3.112-9.354-5.1-13.885-2.1-4.769-3.922-9.661-5.88-14.489a12.363,12.363,0,0,1-1.205-2.719c-1-7.762-6.373-13.2-10.17-19.492-5.427-9.005-13.114-15.448-22.113-20.553-1.262-.718-2.443-1.579-3.618-2.345.625-2.605,2.072-1.915,3.377-1.132,7.93,4.748,15.413,10.021,20.862,17.709,6.614,9.33,13.312,18.625,18.208,29.011,6.381,13.533,11,27.554,12.52,42.6,1.276,12.612,2.332,25.241,2.41,37.881.065,10.405-1.018,20.835-1.915,31.226-.656,7.594-1.837,15.145-2.882,23.521,0-6.245-.374-11.686.068-17.062,1.406-17.084,3.337-34.176,1.9-51.314-.848-10.113-.452-20.355-2.782-30.344a3.869,3.869,0,0,0-1.9-2.96,11.618,11.618,0,0,0,.268-2.112c0-.214-.5-.417-.767-.623-.065.217-.233.466-.176.645C1383.009,569.992,1383.3,570.628,1383.561,571.275Z" transform="translate(170.67 426.892)"/><path class="a" d="M1336.675,577.853c-.848-4.94.379-8.512,1.2-12a150.482,150.482,0,0,1,10.59-30.88c2.259-4.682,4.975-9.146,7.456-13.72,1.527-2.817,2.955-5.69,4.533-8.477a10.93,10.93,0,0,1,2.3-2.844c.368-.32,1.335-.152,1.928.068a1.419,1.419,0,0,1,.566,1.243,6.592,6.592,0,0,1-.991,2.668c-10.213,13.068-17.263,27.76-22.227,43.487-1.636,5.181-2.73,10.535-4.081,15.808C1337.653,574.381,1337.314,575.543,1336.675,577.853Z" transform="translate(175.431 459.89)"/><path class="a" d="M1348.959,613.513c-8.044-19.047-2.941-72.633,8.352-87.266-1.465,8.285-5.048,14.849-6.479,21.989-1.454,7.255-3.123,14.508-3.881,21.848a141.935,141.935,0,0,0-.477,21.517C1346.841,598.926,1348.1,606.212,1348.959,613.513Z" transform="translate(190.208 488.059)"/><path class="a" d="M1332.23,527.008c-.772,8.626-1.72,17.241-2.261,25.88s.3,17.338-.547,27.264c-1.335-1.56-2.264-2.142-2.321-2.8a48.507,48.507,0,0,1-.049-6.7c.333-6.188.623-12.385,1.178-18.554.667-7.418,1.568-14.812,2.427-22.211a15.061,15.061,0,0,1,.883-2.79Z" transform="translate(159.324 489.359)"/><path class="a" d="M1338.736,570.047c-.379-.173-1.016-.255-1.211-.59a6.261,6.261,0,0,1-1.067-2.687c-.2-7.264-1.825-14.484-1.007-22.861.8,1.622,1.313,2.226,1.386,2.879.851,7.589,1.638,15.185,2.416,22.782C1339.267,569.706,1338.928,569.879,1338.736,570.047Z" transform="translate(173.438 518.231)"/><path class="a" d="M1327.386,521.285c-2.985,9.62-2.308,19.6-4.081,30.631-2.007-3.786-1.495-6.243-1.281-8.615C1322.779,534.892,1324.9,525.675,1327.386,521.285Z" transform="translate(150.515 479.582)"/><path class="a" d="M1332.546,509.558c-.718,5.132-4.12,8.913-6.435,13.241,1.4-6.1,2.776-8.753,6.584-13.111Z" transform="translate(157.873 459.55)"/><path class="a" d="M1337.427,505.138a37.6,37.6,0,0,1-8.94,11.971l.149.127c-.485-2.467,1.056-4.176,2.516-5.671,2.091-2.14,2.849-5.679,6.424-6.291Z" transform="translate(161.932 451.999)"/><path class="a" d="M1331.937,510.791c.788-3.754,3.4-6.042,6.857-8.883-2.581,5.108-2.581,5.108-7.006,8.748Z" transform="translate(167.57 446.481)"/><path class="a" d="M1331.815,385.273c2.129,2.14,3.423,2.922,3.959,4.062a53.052,53.052,0,0,1,4.837,22.327c.154,13.677-1.852,27.121-4.65,40.464-.436,2.083-.655,4.366-3.683,6,.664-2.984,1.181-5.3,1.7-7.618.539-2.416,1.265-4.8,1.579-7.247,1.479-11.5,3.789-22.928,2.359-34.652-.788-6.451-2.115-12.658-5.252-18.422C1332.159,389.27,1332.259,388.019,1331.815,385.273Z" transform="translate(167.617 247.236)"/><path class="a" d="M1301.135,388.961c6.44-6.164,18.47-9.631,28.927-8.388,11.878,1.414,22.56,5.13,30.2,14.969-1.208,1.7-1.89.645-2.578.144-3.976-2.906-7.648-6.408-11.976-8.615a36.917,36.917,0,0,0-20.112-4.314c-7.174.636-14.237,1.909-20.548,5.769C1303.846,389.261,1302.611,390.358,1301.135,388.961Z" transform="translate(115.207 238.779)"/><path class="a" d="M1319.618,416.42c-5.492,10.576-10.126,20.114-16.995,28.315a27.326,27.326,0,0,1-4.9,4.387c-.545.4-1.7-.035-3.513-.146,9.993-8.111,15.464-18.243,20.242-28.854a11.827,11.827,0,0,1,1.95-3.085C1316.758,416.639,1317.684,416.756,1319.618,416.42Z" transform="translate(103.37 300.443)"/><path class="a" d="M1339.567,385.15c1.622,0,2.413-.222,2.922.06a3.087,3.087,0,0,1,1.295,1.685c2.147,7.4,3.932,14.858,3.12,22.66a8.628,8.628,0,0,1-.91,1.869C1343.518,402.668,1344.648,393.617,1339.567,385.15Z" transform="translate(180.859 246.884)"/><path class="a" d="M1325.524,377.935c1.866-1.419,3.77-.59,5.557-.054a42.126,42.126,0,0,1,16.9,9.409c-2.692,1.04-4.109-1.137-5.885-1.842-1.82-.718-3.48-1.842-5.284-2.616-2.029-.872-4.127-1.579-6.218-2.3C1328.8,379.907,1326.629,380.029,1325.524,377.935Z" transform="translate(156.87 233.356)"/><path class="a" d="M1302.871,413.329c-1.885,5.36-5.406,9.766-8.431,14.459-.81,1.254-2.039,1.116-3.272.951l.016-.005c1.842-2.505,3.705-4.994,5.52-7.518,1.958-2.719,3.87-5.471,5.8-8.209Z" transform="translate(98.18 294.613)"/><path class="a" d="M1300.839,434.893c-.141-1.281-.4-1.855-.211-2.164,1.76-2.89,3.594-5.736,5.6-8.894C1307.117,427.564,1305.857,430.088,1300.839,434.893Z" transform="translate(114.23 313.11)"/><path class="a" d="M1291.168,418.82a3.648,3.648,0,0,1,.767,1.07c.06.222-.349.569-.547.859-.035-.219-.084-.436-.1-.655-.038-.428-.06-.856-.095-1.278Z" transform="translate(98.18 304.533)"/><path class="a" d="M1326.38,388.908c.449-.344.9-.691,1.348-1.035l.333.593-1.809.276Z" transform="translate(158.116 251.677)"/><path class="a" d="M1432.837,495.116c-3.031,2.963-5.907,3.843-9.2,3.2a21.686,21.686,0,0,1-11.553-6.308,91.285,91.285,0,0,1-14.162-19.055c-2.941-5.17-5.538-10.535-8.377-15.765-3.523-6.492-5.793-13.7-11.277-18.674,1.059-2.177,2.367-1.966,3.147-.943a49.854,49.854,0,0,1,4.853,7.412c3.7,7.285,7.093,14.733,10.785,22.027a97.459,97.459,0,0,0,15.2,21.937,31.293,31.293,0,0,0,6.316,5.089c3.231,2.045,6.725,3.147,10.587,1.43C1429.985,495.1,1431.052,495.265,1432.837,495.116Z" transform="translate(246.967 335.311)"/><path class="a" d="M1435.588,482.886c-1.847,1.449-2.419,2.2-3.15,2.427a18.079,18.079,0,0,1-15.651-2.3,40.492,40.492,0,0,1-10.771-10.148c-7.112-9.669-12.179-20.412-16.743-31.43a9.769,9.769,0,0,1-.585-2.9c-.032-.385.374-.807.612-1.276,2.562.913,2.608,3.5,3.337,5.43a140.7,140.7,0,0,0,10.234,21.442,54.366,54.366,0,0,0,9.926,12.932,44.116,44.116,0,0,0,8.423,5.993,10.605,10.605,0,0,0,7.933,1.048C1430.742,483.682,1432.389,483.479,1435.588,482.886Z" transform="translate(264.769 336.039)"/><path class="a" d="M1434.529,422.664c-3.591,3.719-8.417,1.582-11.927,3.751-3.564,2.207-7.537,3.778-11.006,6.113a55.38,55.38,0,0,0-9.059,7.64c-2.836,2.971-5.141,6.446-7.746,9.788-1.62-2.1-.323-3.621.62-4.859a63.1,63.1,0,0,1,28.765-21.487C1427.279,422.467,1430.458,420.823,1434.529,422.664Z" transform="translate(273.882 309.696)"/><path class="a" d="M1418.982,470.352A67.969,67.969,0,0,1,1402.207,449a31.889,31.889,0,0,1-3.039-8.8c1.378-1.246,2.21-.417,2.435.482,2.554,10.213,8.78,18.1,15.971,25.358,1.3,1.311,2.538,2.394,1.411,4.374Z" transform="translate(282.675 339.974)"/><path class="a" d="M1375.59,430.31c1.5-1.138,2.952-2.345,4.515-3.391,1.742-1.167,2.963-3.228,5.406-3.226l-.149-.165c-2.156,2.134-4.212,4.39-6.53,6.329-.7.588-2.142.3-3.25.409Z" transform="translate(242.383 312.586)"/><path class="a" d="M1381.01,425.362c.829-3.337,4.371-2.513,6.289-4.577.788,1.806-.677,1.752-1.178,2.18a9.521,9.521,0,0,1-2.535,1.406,27.081,27.081,0,0,1-2.708.845Z" transform="translate(251.43 307.9)"/><path class="a" d="M1383.757,422.421a5.184,5.184,0,0,1-4.563,3l.149.168a4.355,4.355,0,0,1,4.544-3.017Z" transform="translate(248.552 310.695)"/><path class="a" d="M1406.485,451.464a3.851,3.851,0,0,1,1.181-.81c.252-.057.623.4.943.631a3.767,3.767,0,0,1-.68.133c-.471.005-.945-.032-1.432-.032A.2.2,0,0,0,1406.485,451.464Z" transform="translate(295.174 358.917)"/><path class="a" d="M1300.965,578.814a43.277,43.277,0,0,1,1.324-5.373c4.258-10.161,4.474-20.843,3.467-31.484-1.21-12.8-3.058-25.561-6.8-37.938-1.143-3.786-2.5-7.5-3.735-11.264-.287-.877-.477-1.787-.818-3.087.829.414,1.349.5,1.452.75a163.8,163.8,0,0,1,11.416,47.465c.72,7.908,1.953,15.833.528,23.746-.916,5.092-2.348,10.1-3.705,15.1C1303.938,577.319,1302.782,577.641,1300.965,578.814Z" transform="translate(103.715 425.572)"/><path class="a" d="M1316.333,568.346c-.171-.531-.628-1.189-.507-1.714,3.895-16.948,1.782-33.634-2.451-50.141-2.4-9.357-5.411-18.557-8.233-27.8-.775-2.54-1.863-4.986-2.795-7.445,1.462-.989,1.877.141,2.231.978.675,1.59,1.249,3.228,1.788,4.87,5.105,15.581,9.793,31.275,12.6,47.46,1.709,9.847,2.2,19.73-.127,29.569a30.405,30.405,0,0,1-1.505,4.136C1317.3,568.363,1316.87,568.308,1316.333,568.346Z" transform="translate(117.279 410.53)"/><path class="a" d="M1313.066,477.57a13,13,0,0,1,1.432,2.161c3.282,8.022,6.6,16.03,9.742,24.106,4.347,11.169,4.2,22.833,3.147,34.482-.263,2.925-.709,6.3-3.71,9.051-.355-1.24-.812-1.931-.65-2.413a62.422,62.422,0,0,0,2.922-18.262c.163-5.826-1.094-11.805-2.481-17.533a109.827,109.827,0,0,0-7.432-20.973c-1.546-3.28-2.548-6.814-3.8-10.232Z" transform="translate(134.177 404.905)"/><path class="a" d="M1326.326,497.416c-2.375-7.423-4.35-13.6-6.348-19.849,1.565-.853,2.229.582,2.7,1.454C1325.554,484.343,1326.716,490.055,1326.326,497.416Z" transform="translate(147.396 404.453)"/><path class="a" d="M1327.09,482.677c-2.8-.956-3.109-2.261-2.776-3.794a1.07,1.07,0,0,1,2.018-.233C1326.643,479.714,1326.765,480.833,1327.09,482.677Z" transform="translate(154.619 405.705)"/><path class="a" d="M1317.606,483.67c-6.487-.531-12.661-2.253-19.215-2.02a37.6,37.6,0,0,0-15.085,3.551c-1.5.712-2.9,2.056-4.991.569,4.761-4.994,11.223-5.2,17.173-6.121C1303.2,478.456,1310.589,480.585,1317.606,483.67Z" transform="translate(76.222 407.881)"/><path class="a" d="M1312.877,495.662c-5.874-2.787-12.185-4.1-18.522-5.13-8.9-1.452-16.715.753-22.817,7.77a2.754,2.754,0,0,1-1.189.85c-.412.125-1.184.1-1.33-.138a2.879,2.879,0,0,1-.5-1.934,3.619,3.619,0,0,1,1.316-1.722c7.18-5.582,15.123-8.409,24.3-6.473,4.845,1.021,9.688,2.069,14.489,3.266,1.923.479,3.792,1.327,4.125,3.729C1312.747,495.9,1312.877,495.662,1312.877,495.662Z" transform="translate(59.431 423.196)"/><path class="a" d="M1308.541,477.47c-5.8.7-6.627.574-12.32-1.806A19.773,19.773,0,0,1,1308.541,477.47Z" transform="translate(106.812 401.132)"/><path class="a" d="M1309.057,337.521c1.92.382,3.052.265,3.588.777a31.54,31.54,0,0,1,4.978,5.5c5.382,8.35,13.309,12.886,22.308,16.5,13.233,5.319,26.95,8.39,40.944,10.589a19.669,19.669,0,0,1,2.9.672c.425.135.764.55,1.809,1.346-3.028-.184-5.441-.038-7.721-.52-10.435-2.2-20.957-4.144-31.2-7.058-6.381-1.817-12.363-5.1-18.427-7.935a21.788,21.788,0,0,1-5.455-3.827C1317.886,349.01,1313.946,343.617,1309.057,337.521Z" transform="translate(128.74 165.662)"/><path class="a" d="M1322.215,329.491c-2.724-4.672-3.163-9.712-3.174-14.839C1322.364,319.118,1322.277,324.345,1322.215,329.491Z" transform="translate(145.795 126.595)"/><path class="a" d="M1318.593,334.468q7.495,3.6,14.988,7.193a28.44,28.44,0,0,1-16.052-5.525Z" transform="translate(143.212 160.446)"/><path class="a" d="M1321.28,339.2a22.87,22.87,0,0,1-13.1-9.945c.853-.238,1.5-.612,1.693-.447,3.911,3.345,7.767,6.752,11.635,10.145Z" transform="translate(127.242 150.7)"/><path class="a" d="M1313.244,332.524a8.628,8.628,0,0,1,1.931.682c.265.168.238.8.563,2.1-1.275-1.192-2-1.866-2.722-2.54Z" transform="translate(135.504 157.125)"/><path class="a" d="M1389.7,341.451a35.744,35.744,0,0,1,4.921,1.284c5.766,2.386,11.86,3.347,17.953,4.287,1.392.214,2.892-.336,4.352-.455a30.049,30.049,0,0,1,6.3.008c-4.287,2.749-9.086,2.41-13.634,1.8-6.1-.813-12.163-2.207-17.658-5.243a15.475,15.475,0,0,1-2.166-1.763Z" transform="translate(266.497 172.24)"/><path class="a" d="M1392.728,350.124c-1.9-2.142-4.778-2.126-7.161-3.2-2.443-1.1-5.029-1.888-6.394-4.485,1.389.482,2.824.861,4.163,1.462a53.3,53.3,0,0,0,17.777,5.008c2.887.225,5.733.972,9.839,1.706C1403.919,352.334,1398.378,349.837,1392.728,350.124Z" transform="translate(248.517 174.066)"/><path class="a" d="M1397.944,335.428a3.717,3.717,0,0,1,1.419.184q8.726,5.245,17.387,10.595c.317.2.376.812.555,1.229l.125-.146c-7.174-2.023-13.143-6.186-18.915-10.687-.3-.238-.3-.867-.439-1.313Z" transform="translate(280.584 161.85)"/><path class="a" d="M1408.472,318.788q-4.81,5.586-9.6,11.139c-1.384-.141-1.958-1.216-1.378-2.037C1400.326,323.9,1403.321,320.023,1408.472,318.788Z" transform="translate(279.44 133.66)"/><path class="a" d="M1405.093,339.867c2.424.282,4.845.571,7.269.837,2.394.257,4.791.487,8.193.834-2.643,2.015-4.772,1.471-6.689,1.349-3.153-.2-6.356-.5-8.648-3.166Z" transform="translate(292.796 169.42)"/><path class="a" d="M1392.445,343.661c-2.635-.645-5.01-1.628-5.937-4.517l-.127.141c2.6.7,4.921,1.758,5.942,4.528Z" transform="translate(260.831 168.434)"/><path class="a" d="M1382.332,344.569a5.1,5.1,0,0,1-4.813-3.228A5.24,5.24,0,0,1,1382.332,344.569Z" transform="translate(245.692 172.187)"/><path class="a" d="M1391.684,342.333c-1.295.084-2.524.041-2.987-1.517l-.122.152c1.387-.306,2.641-.33,3.042,1.443Z" transform="translate(264.579 171.279)"/><path class="a" d="M1378.392,402.9c2.6,2.611.653,4.287.4,6.706C1377.149,406.758,1377.149,406.758,1378.392,402.9Z" transform="translate(245.667 277.349)"/><path class="a" d="M1376,411.485a34.573,34.573,0,0,1-.664-4.049,13.116,13.116,0,0,1,.561-2.57C1377.987,406.551,1377.944,408.181,1376,411.485Z" transform="translate(241.966 280.706)"/><path class="a" d="M1374.009,410.27a6.029,6.029,0,0,1-1.056-1.777,5,5,0,0,1,.417-1.9c.6.274,1.622.447,1.714.842a6.518,6.518,0,0,1-.265,2.567C1374.8,410.113,1374.383,410.15,1374.009,410.27Z" transform="translate(237.855 283.649)"/><path class="a" d="M1330.847,297.339l27.966-3.234c-.658,1.844-2.272,1.993-3.656,2.221q-10.574,1.731-21.182,3.245C1332.838,299.733,1331.5,299.649,1330.847,297.339Z" transform="translate(165.963 91.495)"/><path class="a" d="M1391.918,307.36c-5.487-6.4-8.764-16.12-8.008-23.224C1386.615,291.979,1389.039,299.01,1391.918,307.36Z" transform="translate(256.426 74.465)"/><path class="a" d="M1379.075,283.892c2.562,4.623,2.253,10.04,4.385,14.779C1380.218,294.238,1379.2,289.189,1379.075,283.892Z" transform="translate(248.35 74.048)"/><path class="a" d="M1361.937,383.75c2.735-4.691,6.592-8.249,12.761-11.77A44.287,44.287,0,0,1,1361.937,383.75Z" transform="translate(219.074 224.527)"/><path class="a" d="M1367.5,374.054c2.359-1.88,3.721-2.963,5.95-4.74C1371.439,372.667,1371.439,372.667,1367.5,374.054Z" transform="translate(228.57 219.973)"/></g></svg>