<svg xmlns="http://www.w3.org/2000/svg" width="31.547" height="25.622" viewBox="0 0 31.547 25.622"><defs><style>.a{fill:#707070;}</style></defs><path class="a" d="M28.3,9.766c.02.28.02.561.02.841,0,8.547-6.506,18.4-18.4,18.4A18.271,18.271,0,0,1,0,26.1a13.375,13.375,0,0,0,1.561.08,12.949,12.949,0,0,0,8.027-2.762,6.477,6.477,0,0,1-6.045-4.484,8.153,8.153,0,0,0,1.221.1,6.838,6.838,0,0,0,1.7-.22,6.466,6.466,0,0,1-5.185-6.345v-.08a6.511,6.511,0,0,0,2.922.821,6.475,6.475,0,0,1-2-8.647,18.378,18.378,0,0,0,13.331,6.766,7.3,7.3,0,0,1-.16-1.481,6.472,6.472,0,0,1,11.19-4.424,12.729,12.729,0,0,0,4.1-1.561,6.448,6.448,0,0,1-2.842,3.563,12.962,12.962,0,0,0,3.723-1A13.9,13.9,0,0,1,28.3,9.766Z" transform="translate(0 -3.381)"/></svg>