<svg xmlns="http://www.w3.org/2000/svg" width="23.668" height="19.222" viewBox="0 0 23.668 19.222"><defs><style>.a{fill:#aeb0ba;}</style></defs><path class="a" d="M21.235,8.171c.015.21.015.421.015.631a13.707,13.707,0,0,1-13.8,13.8A13.707,13.707,0,0,1,0,20.426a10.034,10.034,0,0,0,1.171.06,9.714,9.714,0,0,0,6.022-2.072,4.859,4.859,0,0,1-4.535-3.364,6.117,6.117,0,0,0,.916.075,5.13,5.13,0,0,0,1.276-.165A4.851,4.851,0,0,1,.961,10.2v-.06a4.885,4.885,0,0,0,2.193.616,4.858,4.858,0,0,1-1.5-6.488,13.788,13.788,0,0,0,10,5.076,5.476,5.476,0,0,1-.12-1.111,4.855,4.855,0,0,1,8.395-3.319,9.55,9.55,0,0,0,3.079-1.171,4.838,4.838,0,0,1-2.132,2.673,9.724,9.724,0,0,0,2.793-.751,10.427,10.427,0,0,1-2.433,2.508Z" transform="translate(0 -3.381)"/></svg>