<svg xmlns="http://www.w3.org/2000/svg" width="14.694" height="32.536" viewBox="0 0 14.694 32.536"><defs><style>.a{fill:#fff;}</style></defs><path class="a" d="M153.97,18.454V17.446h1.05a.525.525,0,0,0,.525-.525V13.773a.525.525,0,0,0-.525-.525h-1.574V9.837A1.839,1.839,0,0,0,151.609,8h-.525a1.839,1.839,0,0,0-1.837,1.837v3.411h-1.574a.525.525,0,0,0-.525.525v3.149a.525.525,0,0,0,.525.525h1.05v1.008A7.323,7.323,0,0,0,144,25.318v12.07a3.152,3.152,0,0,0,3.149,3.149h8.4a3.152,3.152,0,0,0,3.149-3.149V25.318a7.323,7.323,0,0,0-4.723-6.864ZM150.3,9.837a.788.788,0,0,1,.787-.787h.525a.788.788,0,0,1,.787.787v3.411h-2.1Zm-2.1,6.56V14.3h6.3v2.1Zm9.446,20.991a2.1,2.1,0,0,1-2.1,2.1h-8.4a2.1,2.1,0,0,1-2.1-2.1v-2.1h12.595Zm0-3.149H145.049V26.892h12.595Zm0-8.4H145.049v-.525a6.28,6.28,0,0,1,4.36-5.994.524.524,0,0,0,.363-.5V17.446h3.149v1.379a.524.524,0,0,0,.363.5,6.28,6.28,0,0,1,4.36,5.994Z" transform="translate(-144 -8)"/></svg>