<svg xmlns="http://www.w3.org/2000/svg" width="801.943" height="890.809" viewBox="0 0 801.943 890.809"><defs><style>.a{fill:#f0f0f0;}</style></defs><g transform="matrix(0.899, -0.438, 0.438, 0.899, -320.987, 335.329)"><path class="a" d="M644.515,477.512a9,9,0,0,0,1.552-2.03,76.517,76.517,0,0,1,10.249-18.409c4.757-6.355,9.978-12.371,15.175-18.382,2.855-3.3,6.14-6.226,9.094-9.449a19.726,19.726,0,0,0,2.087-3.645,17.528,17.528,0,0,1,1.625-2.613c1.187-1.41,2.6-1.539,4.193-.532,1.418.9,2.095,2.1,1.386,3.637-1.308,2.828-1.023,5.882-1.536,8.818-.876,4.985-1.926,9.943-3.108,14.866-1.117,4.665-2.3,9.333-3.811,13.883-1.872,5.648-4.074,11.189-6.183,16.757q-5.225,13.79-10.515,27.551c-1.915,4.969-3.819,9.943-5.909,14.839-4.125,9.666-8.353,19.292-12.594,28.913-2.141,4.861-4.163,9.8-6.674,14.471a39.018,39.018,0,0,0-4.284,14.882,176.585,176.585,0,0,0-.774,21.154c.124,5.3,1.249,10.571,1.826,15.868.395,3.6.744,7.222.886,10.845.392,9.94,2.965,19.553,4.348,29.343.395,2.793,1.528,5.476,2.159,8.248.892,3.916,1.523,7.894,2.466,11.8,1.544,6.422,3.153,12.833,4.915,19.2,2.111,7.628,4.184,15.28,6.7,22.781,2.176,6.489,4.95,12.779,7.45,19.161a120.808,120.808,0,0,0,11.485,22.558,33.555,33.555,0,0,0,3.116,4.458,31.481,31.481,0,0,0,4.066,3.193c-.731,5.256-3.164,8.767-8.654,10.23-2.3.612-3.556.086-4.62-1.531-2.431-3.7-4.907-7.381-7.021-11.259-3.779-6.932-7.716-13.827-10.827-21.065-3.521-8.192-6.325-16.706-9.21-25.158-1.8-5.278-3.317-10.663-4.714-16.064-2.4-9.3-4.915-18.565-6.234-28.126-1.1-7.969-2.817-15.852-4.163-23.788-.714-4.225-1.155-8.493-1.832-12.723-.655-4.093-1.84-8.141-2.1-12.25-.357-5.624-1.958-11-2.648-16.531a57.254,57.254,0,0,0-7.566-22.352c-3.623-6.108-7.451-12.108-11.428-17.992-5.847-8.643-13.443-15.624-21.331-22.392-7.929-6.8-17.466-10.805-26.286-16.034-10.026-5.946-19.078-12.838-24.052-23.678-2.809-6.124-4.733-12.656-7-19.021-.567-1.585-.962-3.236-1.4-4.864-.341-1.252-.7-2.5-.943-3.776-.647-3.309-1.166-6.647-1.877-9.943-.516-2.388.081-4.295,1.907-5.208,1.907-.956,3.744-.451,5.339,1.722a90.722,90.722,0,0,1,7.918,12.336,12.011,12.011,0,0,0,7.988,6.2c7.6,2.114,15.538,3.561,22.36,7.77,5.533,3.411,10.582,7.6,16.067,11.1,5.533,3.529,9.309,8.708,13.389,13.563,2,2.38,3.005,5.595,4.837,9.169a17.588,17.588,0,0,0-.038-3.766c-1.4-5.348-.69-10.588.432-15.865a18.553,18.553,0,0,0,.226-4.869,97.249,97.249,0,0,0-4.652-24.387c-.236-.733-.556-1.44-.857-2.151a94.386,94.386,0,0,0-11.052-18.89c-3.895-5.313-5.954-11.554-9.247-17.157-1.7-2.887-3.2-5.893-4.668-8.9-1.187-2.436-2.842-4.689-2.648-7.69.062-.935-.929-1.936-1.84-3.666,1.977.373,3.454.306,4.561.916,5.122,2.828,10.177,5.785,15.186,8.807,4.013,2.42,8.243,4.561,11.463,8.1,2.084,2.291,4.16,4.593,6.177,6.94.32.373.317,1.023.465,1.544.363-.252.723-.5,1.085-.752a7.867,7.867,0,0,0-.024-2.106c-2.847-9.731-5.809-19.429-8.605-29.174-2.689-9.363-7.343-17.751-12.473-25.921a8.6,8.6,0,0,0-1.147-1.563c-5.176-5.125-10.163-10.467-15.629-15.258a147.924,147.924,0,0,0-15.256-11.525c-3.207-2.149-6.962-3.481-10.467-5.189a90.824,90.824,0,0,0-20.114-7.144c-1.955-.435-3.744-1.611-6.384-2.8-9.513,3.121-19.813,6.68-30.232,9.846-5.847,1.775-11.963,2.659-17.82,4.4-3.79,1.123-5.96.158-8.573-2.8-5.154-5.844-11.552-10.4-18.223-14.434a27.33,27.33,0,0,1-13.48-19.561c-.486-2.809-1.356-5.587-1.509-8.407a21.059,21.059,0,0,1,.8-8.119c.873-2.417,2.938-4.4,4.649-6.819a28.73,28.73,0,0,0-14.877-8.656c-5.732-1.193-11.321-3.108-17.069-4.185-6.656-1.252-13.408-2.025-20.138-2.844a105.315,105.315,0,0,1-29.982-8.369,32.912,32.912,0,0,1-12.516-10.324,17.735,17.735,0,0,1-2.877-6.253c-.231-.886.8-2.372,1.622-3.223,3.962-4.088,8.143-7.964,12.049-12.1,1.5-1.587,2.407-3.715,3.69-5.525,4.877-6.886,9.282-14.2,14.858-20.471,4.724-5.307,6.435-11.775,9.285-17.8,4.233-8.952,8.656-17.665,16.222-24.414,4.706-4.2,10.112-7.26,15.336-10.679a111.011,111.011,0,0,1,12.787-7.4c8.049-3.857,15.973-8.033,24.24-11.356,4.37-1.757,8.7-3.263,12.242-6.451a6.368,6.368,0,0,0,1.415-1.321c2.345-4.168,4.469-8.466,6.964-12.537,3.185-5.2,6.5-10.335,10.029-15.3,8.205-11.544,19.65-19.558,30.917-27.7a14.187,14.187,0,0,1,7.6-2.85c2.608-.14,4.934-1.372,7.23-2.648,3.97-2.205,8.023-4.268,12.1-6.261a49.274,49.274,0,0,1,5.076-1.816c3.645-1.3,7.249-2.721,10.934-3.9,5.221-1.668,5.39-1.55,8.621,2.656,3.521.081,6.639-1.311,9.707-3.113,3.911-2.3,7.942-4.391,11.93-6.556a3.548,3.548,0,0,1,1.456-.567c5.361-.145,10.808-.873,16.067-.2a89.677,89.677,0,0,0,23.152.309c6.2-.8,12.347.137,18.524,1.7,7.915,2,14.657,6.016,21.065,10.628a42.884,42.884,0,0,1,12.288,13.265,49.649,49.649,0,0,1,2.31,5.5c2.361-2.573,4.676-4.789,6.626-7.289a106.216,106.216,0,0,1,15.962-15.841A69.137,69.137,0,0,1,724.3,51.336c4.356-.991,9.14-.666,13.657-.212a57.041,57.041,0,0,1,11.7,2.828c9.75,3.164,19.373,6.715,29.147,9.8,7.741,2.441,14.587,6.8,22.094,9.715,4.7,1.821,9.261,4.007,13.937,5.9,4.74,1.915,6.822,5.715,7.416,10.426.158,1.26-.682,2.726-1.305,3.978a31.231,31.231,0,0,1-2.307,3.47,33.776,33.776,0,0,0,2.125,4.359,6.948,6.948,0,0,0,2.562,2.243c6.282,3.129,12.589,6.218,18.949,9.194,5.415,2.533,10.988,4.743,16.341,7.4a30.643,30.643,0,0,1,7.647,5.211,8.546,8.546,0,0,1,2.361,8.27c-.768,3.282-1.278,6.715-2.648,9.744-1.7,3.76-1.354,7.614-1.5,11.439-.1,2.53.913,5.117.747,7.63a28.163,28.163,0,0,1-1.869,7.931,72.167,72.167,0,0,1-3.868,7.6c-1.91,3.663-3.757,7.359-5.75,10.977a63.729,63.729,0,0,1-11.052,14.546c-9.143,9.041-18.53,17.837-27.946,26.592-4.856,4.518-9.87,8.885-15.027,13.05-6.07,4.9-12.328,9.564-18.586,14.224-5.737,4.273-11.619,8.356-17.372,12.607-5.138,3.8-10.289,7.59-15.256,11.6-10.308,8.331-20.6,16.69-30.7,25.268-6.441,5.466-13.024,10.9-18.664,17.138-8.979,9.935-18.119,19.8-25.373,31.18a166.033,166.033,0,0,0-15.881,32.469q-4.621,12.666-8.828,25.481c-1.568,4.786-2.707,9.715-4.04,14.579a1.5,1.5,0,0,0-.094.381c-.11,8.42-.252,16.838-.306,25.26-.051,7.99-.011,15.986-.011,23.977-3.132-.814-2.823-3.416-2.834-5.715-.013-3.371.317-6.744.25-10.112-.073-3.634-.6-7.26-.634-10.891-.054-5.764.107-11.53.263-17.294a16.266,16.266,0,0,1,.653-3.833q2.224-8.082,4.561-16.134c1.77-6.1,3.4-12.258,5.436-18.274,1.826-5.4,4.236-10.6,6.177-15.967a114.494,114.494,0,0,1,14.077-26.786A213.227,213.227,0,0,1,691.1,329.455c6.121-6.575,12.341-13.08,18.863-19.249,5.847-5.535,12.092-10.66,18.3-15.8,4.9-4.056,10-7.856,15.009-11.777q7.356-5.757,14.7-11.53a17.859,17.859,0,0,0-5,.639,16.582,16.582,0,0,1-3.43.723c-4.832.022-9.68.107-14.49-.236a26.709,26.709,0,0,1-7.942-1.888,54.926,54.926,0,0,0-15.5-3.6c-2.138-.2-4.732-.129-6.459.913a39.111,39.111,0,0,0-8.63,7.064c-5.326,5.852-10.255,12.067-15.4,18.084-6.658,7.784-14.13,14.589-23.563,18.9-3.193,1.461-6.508,2.648-9.736,4.037-3.7,1.59-7.311,3.4-11.063,4.853-2.522.975-5.552.959-7.778,2.326-4.861,2.987-9.274,1.2-13.738-.478-3.148-1.179-6.11-2.847-9.212-4.152a6.048,6.048,0,0,0-4.915.153c-6.553,2.777-13.174,5.4-19.789,8.033-6.142,2.444-12.29,4.883-18.476,7.217-3.782,1.429-7.845,2.245-11.407,4.072-5.261,2.7-10.848,4.265-16.416,6a20.97,20.97,0,0,0-6.261,2.522c4.386,1.977,8.3,3.978,12.382,5.527,7.644,2.9,14.179,7.641,20.9,12.094a82.964,82.964,0,0,1,15.613,13.969c3.287,3.65,6.613,7.292,9.567,11.205,4.931,6.529,7.394,14.342,10.623,21.739a39.865,39.865,0,0,1,1.74,5.965q2.244,8.674,4.429,17.367c1.182,4.665,2.111,9.409,3.583,13.98,1.015,3.156-.328,6.688,1.918,9.656.5.663-.271,2.288-.492,3.69-2.643-1.657-2.654-1.654-3.314-4-2.049-7.263-6.621-12.844-12.078-17.745-5.638-5.063-12.556-8.168-19.035-11.933a11.036,11.036,0,0,0-2.194-.685,4.84,4.84,0,0,0,.019,1.488c2.393,5.2,4.5,10.558,7.308,15.524,4.714,8.337,9.87,16.421,14.853,24.6,1.069,1.759,2.511,3.371,3.2,5.262a90.812,90.812,0,0,1,2.715,9.717c.937,3.817,1.738,7.665,2.6,11.5a3.883,3.883,0,0,0,1.311-2.417c.451-2.294.765-4.62,1.316-6.889q2.022-8.344,4.219-16.647c2.028-7.665,4.241-15.285,6.129-22.985a19.976,19.976,0,0,0,.346-7.276,3.5,3.5,0,0,1,1.066-3.462c1.249-1.064,2.619-.768,3.927.239A36.814,36.814,0,0,1,631.972,449c2.38,4.81,2.75,10.048,3.564,15.116,1.359,8.468,1.883,17.071,2.777,25.618a19.121,19.121,0,0,0,.419,2.041c1.912.25,1.754-1.1,2.071-1.993,1.045-2.938,2.111-5.869,3.07-8.834A25.536,25.536,0,0,0,644.515,477.512ZM819.435,107.25l.081.081c-2.458-1.695-4.9-3.408-7.381-5.068a3.183,3.183,0,0,0-1.8-.709c-3.806.387-7.115-1.15-10.526-2.431a21.374,21.374,0,0,0-4.942-1.117,3.478,3.478,0,0,0-2.38.69,17.54,17.54,0,0,0-2.243,2.694c-7.109,8.777-14.063,17.686-21.377,26.292-7,8.237-14.4,16.142-21.583,24.224-4.757,5.35-9.709,10.55-14.1,16.185-4.8,6.153-9.3,12.575-13.475,19.172-4.287,6.771-8.181,13.805-11.952,20.88a234.347,234.347,0,0,0-14.541,34.822c-.744,2.176-1.577,4.322-2.377,6.513-2.1-1.219-2.184-1.289-1.8-2.441.244-.736.784-1.381.98-2.122,3.129-11.879,8.345-22.932,13.582-33.954a273.579,273.579,0,0,1,15.752-27.849,197.525,197.525,0,0,1,16.47-22.236c6.8-8.06,13.743-16.01,20.976-23.678,9.121-9.674,17.42-20.009,25.642-30.425a67.577,67.577,0,0,0,4.007-5.748c1.676-2.637,3.2-5.372,4.843-8.028,1.474-2.374,3.465-3.792,6.459-3.583,4.74.33,9.253-.919,13.717-2.307a12.731,12.731,0,0,0,2.313-1.3,7.471,7.471,0,0,0-4.05-4.781c-3.682-1.59-7.432-3.022-11.1-4.649-7.34-3.263-14.375-7.144-22.064-9.712-10.421-3.478-20.528-7.8-31.435-9.854-9.86-1.856-19.411-2.86-29.246.628a71.479,71.479,0,0,0-24.449,14.893c-5.084,4.628-9.895,9.556-14.8,14.377-1.093,1.077-2.283,2.049-2.181,3.932.167,3.137-1.765,4.969-4.469,6.395-.567-.655-1.338-1.152-1.517-1.813-1.335-4.9-2.758-9.728-6.468-13.478a1.473,1.473,0,0,1-.185-.346,31.571,31.571,0,0,0-8.936-10.161c-5.75-4.4-12.473-6.964-19.451-8.635a32.787,32.787,0,0,0-9.994-1.069c-6.763.459-13.577.285-20.367.161-6.406-.115-12.806-.569-19.212-.714a20,20,0,0,0-4.491.913c-5.627,1.235-9.607,5.635-14.8,7.719-1.714.685-3.341,1.577-5.361,2.541,2.283,2.737,4.477,4.971,6.212,7.518,4.536,6.65,8.928,13.4,13.273,20.173,9.508,14.823,15.817,31.07,20.9,47.816,2.791,9.186,5.256,18.47,7.751,27.739.752,2.788,1.117,5.681,1.66,8.525l-.951.344a18.927,18.927,0,0,1-1.364-2.834c-1.021-3.47-1.918-6.972-2.885-10.459-1.837-6.613-3.535-13.268-5.568-19.819-3.733-12.014-7.754-23.928-13.386-35.236a216.289,216.289,0,0,0-16.846-28.182c-2.922-4.144-6.215-8.039-9.508-11.9-1.031-1.209-1.985-2.877-4.058-2.734a4.878,4.878,0,0,1-4.775-2.809c-1.021-1.9-2.329-1.859-3.921-1.158-7.827,3.449-16.271,5.439-23.464,10.426a20.369,20.369,0,0,1-9.352,3.72,16.76,16.76,0,0,0-7.416,2.278c-8.8,6.011-17.745,11.871-24.729,20.152-4.7,5.573-9.454,11.093-12.734,17.678-2.879,5.783-5.74,11.576-8.764,17.681,1.082.1,2.2.18,3.317.3a51.653,51.653,0,0,1,7.383.876c7.265,1.883,13.574,5.871,19.757,9.892,5.863,3.811,11.431,8.106,16.932,12.441,7.128,5.619,14.366,11.16,20.984,17.348,5.49,5.133,10.276,11.044,15.148,16.8C548.346,205.267,553.666,212,559,218.712c.986,1.244,2.06,2.659,1.244,4.92a30.436,30.436,0,0,1-2.621-2.543c-4.8-5.971-9.532-11.995-14.326-17.968-3.663-4.566-7.12-9.336-11.138-13.566-8.275-8.716-17.909-15.916-27.293-23.369-2.337-1.856-4.775-3.591-7.219-5.3-3.618-2.535-7.383-4.869-10.907-7.526-7.832-5.9-16.48-9.325-26.38-8.992a39.033,39.033,0,0,0-8.066,1.08,50.694,50.694,0,0,0-7.3,2.734c-13.542,5.694-26.993,11.546-39.331,19.682-6.194,4.08-12.3,8.208-17.2,13.851a21.005,21.005,0,0,0-1.821,3.075c1.2,0,1.845.056,2.482-.008,4.407-.459,8.8-1.088,13.22-1.386a85.468,85.468,0,0,1,26.018,2.514c3.167.768,6.615,1.407,9.392,4.485a13.127,13.127,0,0,1-2.326-.161,134.781,134.781,0,0,0-18.21-4.066c-8.635-1.276-17.074-1.585-25.5,1.166-2.377.774-4.972.881-8.055,1.391-4,5.189-5.858,12.2-8.858,18.634a62.324,62.324,0,0,1-7.687,12.994c-4.625,5.769-8.863,11.853-13.225,17.831-2.605,3.572-5.076,7.241-7.706,10.794-2.224,3.005-4.644,5.863-6.86,8.874-1.056,1.434-1.577,3.3-.314,4.741a4.643,4.643,0,0,0,5.3,1.6c2.909-1.077,5.933-1.912,8.718-3.25,7.614-3.655,15.073-7.639,22.7-11.267,8.049-3.83,15.376-9.124,24.344-11.13,5.911-1.321,11.581-3.7,17.391-5.509,3.338-1.039,6.774-1.783,10.091-2.885,2.509-.833,4.144.481,5.294,2.146a112.093,112.093,0,0,1,6.035,10.013,41.164,41.164,0,0,0,12.1,14.082c2.514,1.808,4.929,3.758,7.319,5.724,4.123,3.392,8.012,7.107,12.352,10.185,2.7,1.915,6.014,3.019,9.148,4.246.814.32,2.025-.137,2.973-.47a27.32,27.32,0,0,0,3.22-1.6c1.045,2.307,2.656,2.68,4.888,2.409,5.4-.653,10.832-1.209,16.265-1.413,4.262-.158,8.549.269,12.825.432.392.016.79,0,1.179.051,4.34.556,8.665,1.319,13.021,1.646,9,.674,16.631,4.792,24.162,9.212,4.23,2.484,8.27,5.342,12.648,7.523,7.292,3.637,14.807,6.822,22.188,10.281,3.5,1.641,6.964,3.317,8.909,7.083a5.008,5.008,0,0,0,3.234,2.541c3.406.282,6.022,2.181,8.984,3.408,2.818,1.166,5.46,2.828,8.858,2.694a41.8,41.8,0,0,0,16.47-4.289,60.273,60.273,0,0,1,6.36-2.928,69.74,69.74,0,0,0,25.889-15.159,123.423,123.423,0,0,0,10.768-11.732c4.963-6.011,9.852-12.1,15.046-17.906,1.77-1.979,4.171-4.015,6.629-4.617a29.7,29.7,0,0,1,11.24-.483c4.05.612,7.955,2.3,11.877,3.658,5.339,1.845,10.751,3.387,16.453,2.962a50.924,50.924,0,0,0,9.6-1.6,54.179,54.179,0,0,0,10.2-3.749,76.2,76.2,0,0,0,10.222-6.446c3.368-2.444,6.58-5.13,9.688-7.9,5.133-4.577,10-9.46,15.213-13.937,8.272-7.1,16.768-13.937,25.1-20.96,2.272-1.918,4.3-4.128,6.465-6.175,6.548-6.188,12.043-13.3,17.958-20.058,4.034-4.6,5.1-10.757,9.328-15.352,3.328-3.618,4.039-8.906,3.239-14.05a56.165,56.165,0,0,1-.588-5.734c-.285-5.326,1.544-10.271,3.008-15.25.91-3.089,1.961-6.629.309-9.1a16.172,16.172,0,0,0-7.62-6.4c-9.414-3.5-18.307-8.125-27.173-12.811C825.951,108.781,822.932,107.159,819.435,107.25Zm-219.508,207.7c-2.817-2.441-5.071-5.119-7.929-6.715-6.223-3.481-12.766-6.387-19.158-9.575-3.811-1.9-7.668-3.741-11.348-5.879-4.362-2.535-8.286-5.753-12.9-7.929-5.595-2.637-11.224-4.891-17.538-4.864a40.655,40.655,0,0,1-4.289-.411c-3.752-.379-7.518-1.187-11.248-1.05-8.546.317-17.13-.148-25.636,1.4-4.727.859-9.6.878-14.353,1.638-7.19,1.15-14.35,2.517-21.484,3.98-5.995,1.233-11.549,3.543-14.866,9.057a41.065,41.065,0,0,1-7.9,9.6c-2.32,2.068-2.691,4.971-3.153,7.757a16.715,16.715,0,0,0,.148,4.692c.814,6.629,2.189,13.1,6.825,18.269a36.1,36.1,0,0,0,11.184,8.35,47.081,47.081,0,0,1,10.34,7.453,29.978,29.978,0,0,0,8.205,5.143,5.041,5.041,0,0,0,2.995.446q11.3-3.05,22.515-6.36c1.738-.51,3.317-1.539,5.041-2.1q10.189-3.332,20.437-6.481a8.137,8.137,0,0,1,3.287-.118c3.594.451,7.142,1.786,10.805.736,3.239-.927,6.459-1.945,9.623-3.1,7.289-2.662,14.544-5.423,21.806-8.165,3.529-1.329,7.056-2.67,10.561-4.069,2.49-.994,4.931-2.108,7.407-3.14C585.987,320.734,592.681,317.962,599.927,314.954Zm21.057,126.414a28.965,28.965,0,0,0-.98,2.812c-.465,2.033-.7,4.125-1.284,6.118-1.351,4.609-2.992,9.132-4.254,13.762-1.466,5.377-2.71,10.816-3.94,16.255-1.058,4.673-1.961,9.382-2.928,14.074-.994,4.837-1.885,9.7-2.995,14.512-1.488,6.441-1.939,12.873-.317,19.341,1.045,4.158,2.208,8.286,3.285,12.435,1.3,5.006,2.675,10,3.819,15.041q2.075,9.133,3.779,18.347a32.68,32.68,0,0,1,.048,5.624l-3.473-.561c1.042,1.445,1.684,2.471,2.466,3.376.806.935,2.095,1.593,2.573,2.646,1.92,4.23,4.085,8.439,5.283,12.892a219.41,219.41,0,0,1,5.205,28.379c.475,3.6.854,7.214,1.41,10.8,1.034,6.661,2.141,13.314,3.261,19.961,1.552,9.229,3.005,18.479,4.767,27.667,1.222,6.379,2.906,12.669,4.37,19,2.608,11.289,6.454,22.177,10.5,33.012a150.079,150.079,0,0,0,8.691,19.147c3.505,6.462,7.338,12.744,11.248,19.48,2.313-2.638,6.312,1.3,7.437-2.4-4.493-8.117-8.694-15.825-13.013-23.466-3.776-6.672-6.126-13.929-8.745-21.062-2.364-6.438-4.418-12.994-6.454-19.547-1.655-5.334-3.212-10.7-4.569-16.118-1.611-6.427-2.97-12.916-4.415-19.384-1.187-5.321-2.407-10.636-3.484-15.981-.693-3.43-1.045-6.93-1.735-10.359a172.677,172.677,0,0,1-3.086-22.389c-.392-5.852-.959-11.691-1.332-17.547-.346-5.447-.72-10.9-.739-16.359-.019-4.81.435-9.626.68-14.439a7.43,7.43,0,0,0-1.671,4.182c-.193,2.482-.951,4.254-3.467,5.388-2.847,1.284-4.115.795-4.09-2.425.04-5.715.322-11.428.32-17.141,0-4.963-.376-9.927-.371-14.89,0-4.429-.7-8.938,1.152-13.271,2.141,14.291,2.009,28.73,2.78,43.164a2.068,2.068,0,0,0,1-1.292q1.716-8.795,3.365-17.606c.26-1.407.3-2.855.518-4.271.956-6.161,2.028-12.3,2.885-18.476.54-3.876.782-7.8,1.139-11.7.333-3.615.792-7.225.919-10.848.089-2.594-.317-5.2-.438-7.8-.368-7.956-.193-15.978-1.2-23.85-1.026-8.06-1.217-16.263-3.427-24.167-.905-3.242-1.348-6.642-2.525-9.774C627.46,447.683,625.716,443.689,620.984,441.368ZM344.069,268.537c2.616,1.977,4.542,4.125,6.946,5.119,7.553,3.124,15.342,5.893,23.461,6.849,12.817,1.512,25.542,3.341,38.053,6.548,6.529,1.673,13.306,2.568,18.841,7.01,2.318,1.859,3.073,1.536,4.273-1.209a13.98,13.98,0,0,1,6.417-6.972c5.377-2.885,11.254-3.927,17.146-4.945,3.712-.639,7.442-1.184,11.143-1.872a13.834,13.834,0,0,0,2.874-1.507c-7.209-2.312-11.589-7.193-16.284-11.67a7.972,7.972,0,0,0-2.125-1.62c-6.027-2.651-10.238-7.477-14.538-12.161a21.035,21.035,0,0,1-3.924-5.562,35.143,35.143,0,0,0-6.306-9.725c-2.573-2.828-4.321-3.1-7.907-1.614-2.764,1.15-5.589,2.157-8.428,3.108-6.39,2.135-12.809,4.185-19.206,6.293-9.572,3.156-18,8.659-26.963,13.077-5.125,2.527-10.341,4.867-15.527,7.271C349.569,266.088,347.1,267.173,344.069,268.537ZM597.488,533.971c-.857-2.6-1.606-5.194-2.56-7.711-2.734-7.22-8.777-11.764-14.171-16.676a108.273,108.273,0,0,0-14.649-10.931,51.432,51.432,0,0,0-11.3-5.168c-4.5-1.515-9.221-2.374-13.832-3.564a14.242,14.242,0,0,1-10.612-9.857c-.862-2.552-1.789-5.5-5.323-6.435a17.3,17.3,0,0,0,.36,8.262c2.388,7.421,4.9,14.8,7.225,22.241,1.552,4.966,4.558,9.051,7.741,12.97,6.046,7.448,14.571,11.589,22.636,16.292,5.581,3.255,11.538,5.955,16.778,9.677,6.132,4.356,12.108,9,17.058,14.858,4.362,5.162,9.323,9.814,12.728,15.75.637,1.112,1.418,2.141,2.452,3.685.484-7.644-5.764-33.259-10.169-42.584Zm45.606-18.855,1.01.148a17.556,17.556,0,0,1-.027,3.212c-1.133,6.005-2.275,12.014-3.6,17.979a4.855,4.855,0,0,1-2.13,2.987c-1.434.725-1.7,1.657-1.912,3.04-1.4,8.944-2.946,17.866-4.311,26.815-.231,1.518-.728,3.2.142,5.159a32.717,32.717,0,0,0,2.874-4.155c2.89-6.116,5.635-12.3,8.474-18.436,2.017-4.365,4.346-8.6,6.108-13.061,4.821-12.191,9.414-24.473,14.1-36.718,2.635-6.886,5.3-13.757,7.888-20.662,2.49-6.653,4.945-13.319,7.316-20.015,3.1-8.758,4.69-17.858,5.78-27.052a23.5,23.5,0,0,0-.239-3.822,15.9,15.9,0,0,0-2.745,1.633c-2.232,2.17-4.45,4.362-6.537,6.672a208.35,208.35,0,0,0-20.343,25.7c-4.013,6.161-6.664,12.94-8.955,19.832-1.971,5.925-3.481,12.019-4.891,18.108-.709,3.07-2.707,5.691-2.323,9.2.389,3.556-.089,7.222-.368,10.827-.212,2.745-.156,6.511.462,8.1C640.287,525.389,641.689,520.254,643.094,515.116ZM800.054,94.124l.3,1.056a21.144,21.144,0,0,0,10.6,2.928,6.167,6.167,0,0,0,2.226-.424,3.967,3.967,0,0,0,2.213-4.5c-.486-2.031-2.2-1.883-3.739-1.928a7.626,7.626,0,0,0-1.531.255c-2.409.427-4.837.776-7.22,1.319A14.821,14.821,0,0,0,800.054,94.124Z" transform="translate(0 0)"/><path class="a" d="M444.154,187.5l9.014-3.645c0-3.148.11-6.653-.024-10.15-.22-5.74-.62-11.471-.911-17.211-.626-12.376-1.695-24.731-1.579-37.145.035-3.755-.467-7.515-.529-11.275a27.663,27.663,0,0,1,.7-4.7l1.026.04c.148,2.654.336,5.307.43,7.964q.544,15.068,1.037,30.138c.2,6.1.26,12.215.586,18.312.193,3.623.865,7.22,1.16,10.843a56.371,56.371,0,0,1,.086,7.066c-.207,4.582.467,8.764,4.582,11.565a41.58,41.58,0,0,1,1.845-5.605c2.017-4.152,9.014-4.467,11.624-.628,1.281,1.885,1.115,3.467-.467,4.4-1.939,1.139-3.285.653-4.585-1.832a8.363,8.363,0,0,0-2.4.929c-1.386,1.117-1.05,2.522.642,3.21a8.015,8.015,0,0,0,1.128.333c1.031.252,2.377.508,1.856,1.872a2.931,2.931,0,0,1-2.358,1.475,55.87,55.87,0,0,1-6.645-1.426c-.043.736-.1,1.765-.172,2.96,2.893.384,5.595.253,7.969,2.1,4.982,3.878,5.141,10.609.207,14.514a16,16,0,0,1-7.813,3.1c-2.984.446-5.073-1.746-7.305-3.279a10.783,10.783,0,0,1-1.754-2.022c-1.383-1.614-2.178-3.228-.513-5.211a6.787,6.787,0,0,0,.7-2.353,25.461,25.461,0,0,0-2.592-1.047c-3.271-.916-5.227-3.314-6.771-6.089-.975-1.748-.435-3.5.575-5.117q.693-1.108,1.389-2.218Zm23.982,16.692c-.062-3.013-2.4-5.253-5.313-4.612a15.938,15.938,0,0,0-5.552,2.562c-1.751,1.23-1.8,4.05-.505,5.93a5.871,5.871,0,0,0,6.774,2.527A6.311,6.311,0,0,0,468.136,204.19Z" transform="translate(184.441 88.813)"/><path class="a" d="M439.166,156.62c-4.735-1.851-5.6-6.484-6.54-10.647-.618-2.729,2.21-4.62,4.225-6.118a15.834,15.834,0,0,1,11-3.245c5.484.432,7.424,2.535,6.768,8.289.953.134,1.92.293,2.893.408,4.512.526,6.368,2.686,6.454,7.2.04,1.969-1.219,4.056.443,5.936.167.188-.005.771-.145,1.123-2.329,5.8-8.581,9.758-14.7,8.622-5.017-.932-9.28-3.435-10.749-8.9A7.734,7.734,0,0,1,439.166,156.62Zm16.545,7.319c-.411-1.107-1.12-2.087-1.061-3.019.2-3.161-2.3-4.123-4.222-5.5-1.241-.886-4.152-.293-5.463.857-1.571,1.383-1.115,3.212-.564,4.684a5.27,5.27,0,0,0,2.7,2.637C449.73,164.694,452.5,165.663,455.711,163.939ZM447.2,139.146a57.438,57.438,0,0,0-6.269,2.03,2.925,2.925,0,0,0-1.526,2.262,4.152,4.152,0,0,0,1.746,2.678c2.578,1.593,5.216,1.15,7.582-.6,1.415-1.05,2.632-2.581,1.681-4.305C449.864,140.212,448.271,139.793,447.2,139.146Z" transform="translate(168.805 144.762)"/><path class="a" d="M443.1,100.729c-5.887-5.3-11.71-10.684-17.686-15.887-3.623-3.156-8.135-4.609-12.734-5.681a11.712,11.712,0,0,0-10.314,2.589,8.47,8.47,0,0,0-2.788,9.159c1.391,4.746,4.233,8.648,7.091,12.511,4.469,6.04,9.153,11.92,13.741,17.869,5.557,7.2,10.958,14.533,16.706,21.578,5.176,6.352,10.843,12.3,16.077,18.6,4.139,4.985,8.036,10.177,11.888,15.39q7.759,10.507,15.247,21.213a43.145,43.145,0,0,1,3.615,6.806c.636,1.394.113,2.562-1.738,3.121a12.808,12.808,0,0,1-1.644-2.433c-2.455-6.247-6.3-11.659-10.174-17.044-3.943-5.476-7.861-10.982-12.054-16.268-5.251-6.621-10.794-13.008-16.163-19.537-4.295-5.219-8.6-10.432-12.75-15.763q-13.9-17.843-27.643-35.81a30.17,30.17,0,0,1-4.964-8.769c-2.624-7.8,2.748-13.851,9.341-15.422,7.434-1.773,13.405,1.152,19.276,4.977a63.55,63.55,0,0,1,14.646,13.3,52.049,52.049,0,0,1,3.435,5.407Z" transform="translate(107.439 43.387)"/><path class="a" d="M454.174,179.443c-.269-8.7,1.692-17.085,3.8-25.362,2.071-8.133,5.09-16.021,7.219-24.218l-2.989,5.963-.722-.209a16.84,16.84,0,0,1,.612-3.47c4.552-11.369,9.905-22.306,17.509-32.015,3.129-4,6.134-8.09,9.245-12.1a13.363,13.363,0,0,1,2.21-1.722c-.064,1.472-.1,2.364-.183,4.112,3.1-3.261,5.769-5.914,8.267-8.718a126.186,126.186,0,0,1,20.163-17.689c5.329-3.892,11.125-7.3,17.759-8.64,2.852-.575,5.836-1.069,8.944.478-1.128,1.62-2.635,1.539-3.951,1.614-7.818.435-14.555,3.712-20.848,8.015A149.451,149.451,0,0,0,493.75,90.388a151.6,151.6,0,0,0-24,36.253,149.483,149.483,0,0,0-11.125,34.027c-1.19,5.981-2.549,11.93-3.857,17.888C454.7,178.879,454.376,179.147,454.174,179.443Zm26.775-77.116a12.5,12.5,0,0,0-2.431,2.369c-3.532,6.129-6.967,12.315-10.4,18.5-.712,1.281-1.265,2.651-1.891,3.98l.661.368a18.977,18.977,0,0,0,2-3.094,79.348,79.348,0,0,1,6.956-12.959c1.869-2.936,3.494-6.027,5.227-9.049.688-.674,1.378-1.348,2.57-2.519C481.3,100.165,480.834,101.014,480.95,102.327Zm3.223-4.816.542.5q1.144-1.632,2.291-3.261l-.551-.373Q485.315,95.947,484.173,97.511Z" transform="translate(205.236 6.956)"/><path class="a" d="M541.57,68.853c-1.48,1.759-2.855,3.623-4.461,5.259a153.817,153.817,0,0,0-13.553,16.026c-8.469,11.342-16.889,22.722-23.9,35.053-3.642,6.406-7.131,12.9-10.63,19.392-2.718,5.041-5.527,10.048-7.964,15.223-2.984,6.336-5.877,12.739-8.339,19.29-2.879,7.663-5.541,15.438-7.743,23.316-1.5,5.35-2.076,10.961-3.008,16.464-.886,5.245-1.655,10.512-2.573,15.752-.357,2.036-.978,4.023-1.526,6.226-1.456-.373-2.106-1.09-1.818-2.707.583-3.282.988-6.6,1.569-9.879,1.893-10.735,3.2-21.6,6.623-32.01,3.43-10.437,6.465-21.006,11.724-30.79,4.62-8.6,8.482-17.6,13.069-26.216a306.033,306.033,0,0,1,27.624-43.363c4.918-6.371,10.056-12.575,15.218-18.75,2.715-3.244,5.7-6.261,8.562-9.379Q541.006,68.3,541.57,68.853Z" transform="translate(208.332 28.782)"/><path class="a" d="M477.354,220.461a32.655,32.655,0,0,1-1.2-3.881c-1.037-5.63-2.047-11.264-2.941-16.918a275.244,275.244,0,0,0-8.984-37.465A283.758,283.758,0,0,0,450,125.1c-4.168-8.933-8.238-17.928-12.857-26.625-4.074-7.668-8.928-14.92-13.3-22.44a90.818,90.818,0,0,0-10.128-14.3c-.349-.4-.575-1.456-.338-1.695a2.38,2.38,0,0,1,1.937-.736,5.024,5.024,0,0,1,2.31,1.8c3.666,5.522,7.518,10.95,10.776,16.709,5.882,10.391,11.734,20.826,16.958,31.553,5.21,10.7,9.792,21.715,14.366,32.711,5.5,13.228,9.1,27.071,12.258,41.007,2.272,10.024,4.292,20.106,6.229,30.2.435,2.267.064,4.689.064,7.04Z" transform="translate(136.341 14.444)"/><path class="a" d="M589.264,71.919a30.234,30.234,0,0,1-2.49,4.27c-5.243,6.422-10.687,12.68-15.871,19.145-7.077,8.828-13.953,17.821-20.971,26.7-8.468,10.708-16.9,21.441-25.513,32.037-10.91,13.421-22.013,26.684-33.893,39.264-4.383,4.641-8.973,9.086-13.569,13.518a60.213,60.213,0,0,1-6.027,4.91c-.443.328-1.316.07-1.99.083.172-.569.169-1.316.542-1.676,3.274-3.153,6.677-6.172,9.924-9.349a384.975,384.975,0,0,0,27.114-28.932c6.3-7.585,12.862-14.957,19.051-22.634,9.218-11.436,18.264-23.015,27.288-34.6,8.466-10.87,16.808-21.839,25.215-32.756,1.974-2.565,3.881-5.2,6.019-7.622,1.313-1.491,2.675-3.43,5.245-2.272Z" transform="translate(230.171 35.331)"/><path class="a" d="M451.033,160.554c-2.323-.3-2.095-1.566-1.974-2.5q.741-5.789,1.7-11.549c1.214-7.3,2.24-14.635,3.8-21.857,2.278-10.534,3.578-21.24,6.408-31.7,1.8-6.656,4.295-13.061,6.089-19.7a12.16,12.16,0,0,1,1.8-3.454c1.2-1.781,1.622-1.748,4.152.032-.422.9-.792,1.875-1.3,2.766-5.02,8.772-7.456,18.5-10.147,28.094-1.26,4.5-1.687,9.22-2.573,13.824-1.464,7.622-3.094,15.218-4.458,22.856-1.05,5.89-1.8,11.834-2.689,17.756C451.575,156.9,451.312,158.677,451.033,160.554Z" transform="translate(196.536 30)"/><path class="a" d="M495.308,167.11c1.286-3.212,4.638-3.929,7.077-5.7,5.651-4.091,11.547-7.845,17.262-11.85,3.062-2.146,6.008-4.467,8.917-6.825,6.747-5.471,13.51-10.929,20.13-16.553a176.043,176.043,0,0,0,18.9-19.15c4.853-5.6,9.755-11.157,13.161-17.837a40.9,40.9,0,0,1,2.8-4.115c.908,1.668.108,2.605-.489,3.693-5.356,9.787-12.53,18.119-20.254,26.093a363.734,363.734,0,0,1-30.938,27.952c-3.108,2.549-6.68,4.526-9.986,6.838-4.8,3.355-9.537,6.806-14.34,10.161q-4.806,3.352-9.741,6.519a8.882,8.882,0,0,1-2.584.688Z" transform="translate(274.482 57.989)"/><path class="a" d="M375.7,104.862c3-.846,5.189.709,7.354,2.052,10.956,6.792,21.527,14.1,30.949,22.983,3.768,3.556,8.041,6.575,11.8,10.139,4.6,4.373,8.952,9.016,13.319,13.631,2.476,2.616,4.8,5.382,7.115,8.141a3.872,3.872,0,0,1,.72,2.783,10.113,10.113,0,0,1-2-1.265c-8.447-8.648-16.735-17.461-25.338-25.951a168.672,168.672,0,0,0-13.9-11.914c-5.178-4.1-10.528-8-15.927-11.81-3.159-2.229-6.561-4.112-9.854-6.153Q377.817,106.183,375.7,104.862Z" transform="translate(72.991 90.924)"/><path class="a" d="M455.1,144.95a53.308,53.308,0,0,1-6.774,2.554,13.372,13.372,0,0,1-9.814-1.606c-3.438-1.953-4.147-5.573-1.507-8.522,2.729-3.051,5.216-6.449,9.245-8.039.591-.231,1.286-.943,1.687-.79,3.647,1.407,8.036.594,11.068,3.94,2.825,3.118,2.919,5.662-.091,8.635-1.324,1.311-2.63,2.637-3.948,3.962Zm-8.487.03c3.3-1.171,6.951-2.28,9.4-5.766,2.248-3.2-.145-6.274-3.11-6.5-4.6-.349-8.56.774-11.31,4.676-.924,1.311-2.194,3.024-1.982,4.34.339,2.09,2.654,2.584,4.622,2.938C444.875,144.783,445.527,144.84,446.612,144.979Z" transform="translate(173.633 131.223)"/><path class="a" d="M435.608,135.589c3.113-.1,4.655,1.872,6.059,3.975a14.039,14.039,0,0,1,2.039,7.8c.046,2.879-1.617,4.867-4.346,5.812-2.439.846-4.867,1.727-7.3,2.6-2.8,1.01-3.524.682-4.66-2.057a8.916,8.916,0,0,0-1.074-2.087c-2.232-2.871-2.039-5.807-.1-8.627a29.337,29.337,0,0,1,4.754-5.686C432.154,136.315,434.043,136.137,435.608,135.589Zm-2.514,15.932a28.907,28.907,0,0,1,3.1-1.112c3.846-.9,5.5-3.937,3.714-7.461-.835-1.644-1.641-3.776-3.962-3.908-2.417-.14-3.709,1.507-4.663,3.5-.277.58-.972,1.053-1.031,1.622a7.13,7.13,0,0,0,.2,3.381A25.327,25.327,0,0,0,433.094,151.522Z" transform="translate(155.614 143.124)"/><path class="a" d="M453.562,128.632a15.9,15.9,0,0,1-1.152-2.68c-1.512-6.556-2.726-13.19-4.477-19.679-2.261-8.374-4.939-16.636-7.429-24.951a98.916,98.916,0,0,0-8-18.422,36.648,36.648,0,0,1-2.253-4.91c-.2-.559.244-1.354.607-3.005,1.552,2.031,2.906,3.253,3.578,4.775,2.568,5.809,5.154,11.63,7.284,17.606,2.783,7.813,5.291,15.734,7.622,23.692,1.238,4.225,1.9,8.624,2.737,12.959.862,4.45,1.638,8.917,2.417,13.381a3.238,3.238,0,0,1-.231,1.125Z" transform="translate(164.852 7.243)"/><path class="a" d="M466.838,99.681c-1.007,3.72-2,7.442-3.027,11.154-1.176,4.246-2.538,8.45-3.545,12.734-1.187,5.06-2.082,10.19-3.094,15.29a3.331,3.331,0,0,0-.046.784c.252,7.843-1.039,15.578-1.625,23.361a76.382,76.382,0,0,1-1.281,8.063c-.1.532-.58.994-1.679,1.362a43.589,43.589,0,0,1,.021-4.434q1.217-11.683,2.56-23.353c.577-5.025,1.147-10.053,1.9-15.054a142.29,142.29,0,0,1,6.645-25.212c.583-1.681,1.289-3.317,1.939-4.974Z" transform="translate(202.437 82.125)"/><path class="a" d="M461.517,168.5c-3.766-5.286-7.346-10.859-11.477-15.986A153.42,153.42,0,0,0,430.8,133.055c-3.647-3.161-7.228-6.406-10.988-9.427s-7.7-5.783-11.546-8.681c-.868-.655-1.668-1.4-2.847-2.406,2.447-.9,3.661.451,4.695,1.286,9,7.281,18.2,14.369,26.748,22.155A120.588,120.588,0,0,1,456.5,158.111a97.762,97.762,0,0,1,4.883,8.863A3.566,3.566,0,0,1,461.517,168.5Z" transform="translate(123.09 103.773)"/><path class="a" d="M472.7,121.933a21.947,21.947,0,0,1-.051,4.848q-3.384,14.556-7.042,29.045c-.892,3.529-2.116,6.972-3.2,10.453a2.01,2.01,0,0,1-.312.712c-.94,1.077-1.211,3.473-3.312,2.487-2.2-1.034-.521-2.578-.011-3.954,1.354-3.642,2.833-7.26,3.886-10.993,2.718-9.631,5.216-19.322,7.843-28.978.354-1.305.945-2.543,1.426-3.814Z" transform="translate(211.187 119.783)"/><path class="a" d="M410.8,123.776a128.135,128.135,0,0,1,26.125,25.953c1.947,2.576,4.034,5.049,6.054,7.571.483.6,1.278,1.182,1.351,1.837a12.671,12.671,0,0,1-.414,3.2c-.892-.363-2.1-.478-2.616-1.139-1.915-2.46-3.591-5.108-5.374-7.673a137.8,137.8,0,0,0-19.706-23.117q-2.425-2.228-4.7-4.622C411.173,125.425,411.136,124.759,410.8,123.776Z" transform="translate(132.155 123.215)"/><path class="a" d="M413.764,121.708a40.972,40.972,0,0,1,4.711,3.164c8.469,7.5,17.031,14.909,22.943,24.793.924,1.544,2.323,2.8,3.3,4.313.886,1.37.255,2.608-1.1,3.226-1.319.6-2.331-.1-2.731-1.41-2.079-6.787-6.478-12.092-11.211-17.085-5.307-5.6-10.937-10.9-16.427-16.333Z" transform="translate(136.296 119.729)"/><path class="a" d="M422.467,100.335c2.839.967,3.484,2.836,4.281,4.622,1.95,4.364,3.959,8.7,5.93,13.064.72,1.6,1.4,3.215,2.468,5.681-1.141-.833-1.684-1.023-1.869-1.394C429.751,115.2,426.265,108.076,422.467,100.335Z" transform="translate(151.824 83.698)"/><path class="a" d="M415.011,86.226q3.618,5.326,7.233,10.652l-.725.508q-3.662-5.29-7.327-10.585Z" transform="translate(137.873 59.912)"/><path class="a" d="M500.109,115.594a14.7,14.7,0,0,1-7.781,4.92,14.332,14.332,0,0,1,7.861-4.84Z" transform="translate(269.598 109.422)"/><path class="a" d="M445.311,217.268c-1.493-2-1.6-4.252-1.569-6.347.132-8.205.416-16.413.8-24.61.07-1.456.9-2.874,1.571-4.891,1.762,3.758.945,7.015.975,10.2.056,6.242.1,12.484.094,18.726C447.181,212.71,447.833,215.3,445.311,217.268Z" transform="translate(187.684 220.394)"/><path class="a" d="M441.052,177.175c.5,3.043,1.066,6.078,1.48,9.132,1.115,8.232,2.151,16.478,3.253,24.712a26.838,26.838,0,0,1,.69,3.406,12.205,12.205,0,0,1-.959,4.442c-2.514-4.308-1.128-9.151-2.208-13.655-1.088-4.534-1.3-9.28-1.845-13.937s-1.023-9.341-1.531-14.012Z" transform="translate(181.267 213.238)"/><path class="a" d="M416.014,136.71c-5.111,3.825-9.87,6.8-13.894,10.561-3.9,3.653-7.04,8.114-10.655,12.39-1.34-2.006.027-3.792.868-4.95,4.507-6.2,9.505-11.976,16.324-15.817a37.18,37.18,0,0,1,4.45-2.307C413.792,136.315,414.708,136.632,416.014,136.71Z" transform="translate(98.611 144.63)"/><path class="a" d="M387.578,179.178c-1.491-6.075,4.663-27.017,9.47-31.811-.9,6.207-3.516,11.09-4.827,16.319S390.28,174.357,387.578,179.178Z" transform="translate(92.623 162.986)"/></g></svg>